<?xml version="1.0" encoding="UTF-8"?>
<svg id="Layer_1" data-name="Layer 1" xmlns="http://www.w3.org/2000/svg" viewBox="0 0 42 42">
  <defs>
    <style>
      .cls-1 {
        fill: #fff5c0;
      }
    </style>
  </defs>
  <path class="cls-1" d="m10,0C4.49,0,0,4.49,0,10v22c0,5.51,4.49,10,10,10h22c5.51,0,10-4.49,10-10V10c0-5.51-4.49-10-10-10H10Zm0,2h22c4.43,0,8,3.57,8,8v22c0,4.43-3.57,8-8,8H10c-4.43,0-8-3.57-8-8V10C2,5.57,5.57,2,10,2Zm8.57,5.9c-.38-.02-.78.06-1.14.27-.95.56-1.27,1.79-.71,2.74l1.81,3.09-5.87,10.01h-4.67c-1.1,0-2,.9-2,2s.9,2,2,2h15.41c.16-.76.06-1.59-.38-2.36h0c-.39-.68-.92-1.23-1.55-1.64h-4.18l7.68-13.1c.56-.95.24-2.18-.71-2.74-.95-.56-2.18-.24-2.74.71l-.68,1.16-.68-1.16c-.35-.6-.96-.94-1.6-.98Zm5.74,8.05l-.83,1.37c-.91,1.52-.94,3.39-.11,4.94l6.3,10.75c.37.64,1.04.99,1.73.99.34,0,.69-.09,1.01-.27.95-.56,1.27-1.78.71-2.74l-1.75-2.98h2.62c1.1,0,2-.9,2-2s-.9-2-2-2h-4.97l-4.72-8.06Zm-13.69,14.06c-.56-.02-1.1.07-1.61.23l-.45.76c-.56.95-.24,2.18.71,2.74.32.19.66.28,1.01.28.69,0,1.36-.36,1.73-.99l1.08-1.84c-.58-.68-1.44-1.15-2.46-1.18h0Z"/>
</svg>