<?xml version="1.0" encoding="UTF-8"?>
<svg id="Layer_1" data-name="Layer 1" xmlns="http://www.w3.org/2000/svg" viewBox="0 0 42 44.54">
  <defs>
    <style>
      .cls-1 {
        fill: #fff5c0;
      }
    </style>
  </defs>
  <path class="cls-1" d="m6,0C2.7,0,0,2.7,0,6v32.24l21,6.3,21-6.3V6c0-3.3-2.7-6-6-6H6Zm0,2h30c2.22,0,4,1.78,4,4v30.76l-19,5.7-19-5.7V6c0-2.22,1.78-4,4-4Zm1,3c-1.66,0-3,1.34-3,3v17c0,1.66,1.34,3,3,3h4v-3h-4v-7h3v-3h-3v-7h4v-3h-4Zm6,0v23h3v-10h3c1.66,0,3-1.34,3-3v-7c0-1.66-1.34-3-3-3h-6Zm11,0v23h3V5h-3Zm8,0c-1.66,0-3,1.34-3,3v17c0,1.66,1.34,3,3,3h3c1.66,0,3-1.34,3-3v-4h-3v4h-3V8h3v4h3v-4c0-1.66-1.34-3-3-3h-3Zm-16,3h3v7h-3v-7ZM5,30c-.55,0-1,.45-1,1v4c0,.55.45,1,1,1h4c.55,0,1-.45,1-1v-2h-2v1h1v.75c0,.14-.11.25-.25.25h-3.5c-.14,0-.25-.11-.25-.25v-3.5c0-.14.11-.25.25-.25h3.5c.14,0,.25.11.25.25v.75h1v-1c0-.55-.45-1-1-1h-4Zm9,0l-3,6h1l.5-1h4l.5,1h1l-3-6h-1Zm5,0v6h1v-4l1.5,3h1l1.5-3v4h1v-6h-1l-2,4-2-4h-1Zm7,0v6h5v-1h-4v-1.5h2v-1h-2v-1.5h4v-1h-5Zm7,0c-.55,0-1,.45-1,1v1.5c0,.55.45,1,1,1h3.75c.14,0,.25.11.25.25v1c0,.14-.11.25-.25.25h-3.5c-.14,0-.25-.11-.25-.25v-.25h-1v.5c0,.55.45,1,1,1h4c.55,0,1-.45,1-1v-1.5c0-.55-.45-1-1-1h-3.75c-.14,0-.25-.11-.25-.25v-1c0-.14.11-.25.25-.25h3.5c.14,0,.25.11.25.25v.25h1v-.5c0-.55-.45-1-1-1h-4Zm-18.5,1l1.5,3h-3l1.5-3Z"/>
</svg>