<?xml version="1.0" encoding="UTF-8"?>
<svg id="Layer_1" data-name="Layer 1" xmlns="http://www.w3.org/2000/svg" viewBox="0 0 46 38.03">
  <defs>
    <style>
      .cls-1 {
        fill: #fff5c0;
      }
    </style>
  </defs>
  <path class="cls-1" d="m4.84,0c-.86,0-1.32.02-1.69.06s-.66.17-.84.25c-.8.36-1.44.99-1.78,1.78-.11.25-.22.69-.25,1.31s0,1.6,0,3.5,0,2.98.03,3.59c.03.62.14,1.04.25,1.28.37.84,1.02,1.5,1.91,1.81.38.13.63.11,1.12.12s1.18.03,2.19.03h6.22c0,.39,0,1.42,0,1.66-.01.43-.02.63-.03.69s.02-.06-.03.03c-.16.29-.44.55-.75.69-.18.07-.07.07-.72.09s-1.89.03-4.28.03H1.28c-.36,0-.7.18-.88.5-.18.31-.18.7,0,1.01.18.31.52.5.88.5h4.91c2.39,0,3.64,0,4.38-.03s1.15-.14,1.41-.25c.75-.32,1.37-.88,1.75-1.59.05-.09.17-.34.22-.59s.05-.54.06-1c.01-.38,0-1.75,0-2.44v-.03c.03-.14.03-.29,0-.44v-.03c0-.97.03-1.34.03-3.06,0-3.38,0-5.07-.03-6-.01-.46-.02-.74-.06-1-.05-.26-.17-.54-.22-.62-.38-.71-1-1.24-1.75-1.56-.25-.11-.66-.22-1.28-.25S9.06,0,7.16,0C6.17,0,5.42,0,4.84,0ZM20.66,0c-.86,0-1.35.04-1.75.09s-.7.21-.91.31c-.79.39-1.43,1.07-1.72,1.91-.07.22-.05.3-.06.41s-.02.21-.03.34c-.02.28-.02.63-.03,1.03-.02.8-.04,1.82-.03,2.84s0,2.04.03,2.84c.01.4.04.75.06,1.03,0,.14.02.27.03.38s-.02.16.06.38c.38,1.09,1.3,1.93,2.44,2.16.18.04.22.03.31.03s.19,0,.31,0c.25,0,.58.03.97.03.78,0,1.79,0,2.88,0,2.14,0,3.18,0,3.91-.09s1.31-.45,1.62-.72c.37-.31.58-.6.78-1,.11-.22.25-.68.28-1.31s.03-1.65.03-3.72,0-3.12-.03-3.75c-.03-.63-.17-1.05-.28-1.28-.2-.44-.45-.77-.84-1.09-.35-.29-.91-.63-1.69-.72-.77-.09-1.89-.09-4.06-.09C21.95,0,21.23,0,20.66,0ZM36.38,0c-.64.01-1.11.05-1.5.09-.77.09-1.37.43-1.72.72-.4.33-.64.66-.84,1.09-.11.23-.25.65-.28,1.28s-.03,1.66-.03,3.72,0,3.09.03,3.72.17,1.05.28,1.28c.2.44.41.75.78,1.06.33.28.85.59,1.47.69s1.36.11,2.84.12l6.28.03v.25c-.01.63-.02,1.18-.03,1.56,0,.19-.02.34-.03.44-.12.32-.23.48-.66.69-.29.14-.09.12-.72.16s-1.85.03-4.31.03h-4.94c-.36,0-.7.18-.88.5-.18.31-.18.7,0,1.01.18.31.52.5.88.5h4.94c2.46,0,3.69,0,4.44-.03s1.22-.23,1.5-.38c.77-.38,1.38-1.03,1.66-1.81.12-.33.08-.32.09-.47s.02-.32.03-.53c.02-.42.02-.98.03-1.62,0-.28,0-.69,0-1v-.03c.05-.18.05-.36,0-.53v-.03c.01-.98.03-1.94.03-3.03,0-1.66,0-3.3-.03-4.59-.01-.64-.01-1.21-.03-1.62,0-.21-.02-.39-.03-.53s.02-.14-.09-.47c-.28-.8-.88-1.49-1.66-1.88-.28-.14-.74-.3-1.38-.34-.63-.04-1.62-.03-3.59-.03C37.82,0,37.02,0,36.38,0ZM4.88,2.01c.56,0,1.29,0,2.28,0,1.9,0,2.91,0,3.44.03.53.02.43,0,.59.06.3.13.59.43.75.72.02.05.03.02.03,0,.01.05.02.29.03.72.02.86.03,2.55.03,5.94v2.28h-6.25c-1,0-1.66-.02-2.09-.03s-.67-.07-.56-.03c-.14-.05-.6-.44-.72-.72-.11-.24-.1-.06-.12-.56-.02-.5,0-1.52,0-3.5s-.02-2.91,0-3.44c.02-.53.02-.39.09-.56.16-.39.37-.61.75-.78.18-.08.09-.07.28-.09.19-.02.63-.03,1.47-.03Zm15.78,0c.55,0,1.29,0,2.28,0,2.18,0,3.32,0,3.84.06s.33.01.66.28c-.02-.01.25.34.28.41.11.23.07.01.09.53s.03,1.59.03,3.66,0,3.11-.03,3.62.05.28-.06.5c-.04.08-.35.41-.31.38-.34.29-.06.2-.53.25s-1.54.09-3.69.09c-1.08,0-2.11,0-2.88,0-.38,0-.68-.02-.91-.03-.11,0-.22,0-.28,0-.4-.08-.79-.42-.94-.84,0-.06,0-.12,0-.22-.02-.23-.05-.58-.06-.97-.02-.78-.03-1.77-.03-2.78,0-1.01.01-2,.03-2.78,0-.39.02-.73.03-.97,0-.11.03-.19.03-.25v-.03c.13-.35.29-.54.66-.72.21-.11.16-.1.34-.12s.6-.05,1.44-.06Zm15.72,0c.61,0,1.45,0,2.53,0,1.97,0,2.98,0,3.47.03s.32.02.59.16c.38.19.5.32.62.59,0,.02.03.07.03.12,0,.1.02.25.03.44.02.39.02.93.03,1.56.02,1.27.03,2.91.03,4.56,0,.84-.02,1.55-.03,2.34l-6.25-.03c-1.48-.02-2.24-.04-2.56-.09s-.16,0-.47-.25c.03.03-.25-.3-.28-.38-.11-.23-.07-.02-.09-.53s-.03-1.57-.03-3.62,0-3.11.03-3.62-.02-.3.09-.53c.04-.07.33-.42.31-.41.32-.27.13-.22.66-.28.27-.03.67-.05,1.28-.06ZM10.69,24.19l-3.91.03c-1.76,0-2.75,0-3.38.03s-1.01.06-1.31.19c-.77.31-1.39.88-1.75,1.59-.12.24-.28.71-.31,1.34S0,29.02,0,31.07c0,2.22-.01,3.32.06,4.06s.4,1.29.66,1.62c.52.68,1.21,1.02,2,1.16.28.05.32.02.56.03.24,0,.57.03.94.03.75.01,1.73,0,2.75,0l3.69-.03c.36,0,.7-.18.88-.5.18-.31.18-.7,0-1.01-.18-.31-.52-.5-.88-.5l-3.72.03c-1.01,0-1.96.01-2.69,0-.36,0-.68-.02-.91-.03s-.46-.03-.28,0c-.26-.04-.73-.38-.75-.41-.26-.34-.2-.08-.25-.59s-.06-1.65-.06-3.88c0-2.05,0-3.09.03-3.59s0-.29.12-.53c.18-.36.27-.49.69-.66.05-.02.1-.04.66-.06s1.53,0,3.28,0l3.94-.03c.55,0,.99-.46.98-1.02,0-.55-.46-.99-1.02-.98Zm7.5,0c-.63.01-1.08.05-1.47.09-.77.09-1.37.43-1.72.72-.39.32-.64.66-.84,1.09-.11.23-.25.68-.28,1.31s0,1.63,0,3.69-.03,3.02,0,3.66.14,1.04.25,1.28c.44.96,1.34,1.69,2.38,1.88.27.05.34.02.59.03s.61.03,1,.03c.79.01,1.78,0,2.84,0,1.85,0,2.8,0,3.41-.03s1.04-.17,1.28-.28c.72-.34,1.28-.87,1.62-1.56.14-.28.23-.69.25-1.34s.03-1.72.03-3.66c0-2.07,0-3.11-.03-3.75-.01-.32-.04-.52-.09-.75s-.13-.43-.19-.53c-.37-.69-.98-1.25-1.69-1.56-.24-.11-.67-.25-1.28-.28s-1.57-.03-3.53-.03c-1.08,0-1.9-.01-2.53,0Zm17.16,0c-1.3,0-2.02.03-2.5.06s-.82.11-1.03.19c-.8.3-1.43.89-1.84,1.66-.07.14-.15.4-.19.62s-.05.45-.06.81c-.03.73-.05,1.98-.06,4.28,0,1.36-.03,2.64-.03,3.59,0,.48.03.88.03,1.16,0,.14,0,.25,0,.34,0,.04,0,.08,0,.12,0,.02,0,.03,0,.06,0,.02,0,.03,0,.06s.06.19.06.19c.16.49.68.78,1.18.66.51-.12.84-.61.75-1.12v-.34c0-.27-.03-.65-.03-1.12,0-.94.02-2.21.03-3.56.01-2.3,0-3.55.03-4.22.01-.33.05-.52.06-.59.16-.29.54-.63.78-.72.15-.05.1-.04.47-.06s1.05-.06,2.34-.06h1.47v10.81c0,.36.18.7.5.88.31.18.7.18,1.01,0,.31-.18.5-.52.5-.88v-10.81h5.19l-.03,4.88v5.94c0,.36.18.7.5.88.31.18.7.18,1.01,0,.31-.18.5-.52.5-.88v-5.94l.03-5.88v-1h-7.19c-1.48,0-2.6,0-3.47,0Zm-14.62,2c1.96,0,2.95,0,3.44.03s.32.02.56.12c.4.18.53.3.72.66.04.07.03,0,.03.03s.02.14.03.41c.02.54.03,1.59.03,3.66,0,1.93,0,2.99-.03,3.56s-.02.51-.03.53c-.12.24-.44.54-.69.66-.15.07-.03.07-.53.09s-1.47.02-3.31.03c-1.05,0-2.04.01-2.81,0-.38,0-.73-.02-.97-.03s-.46-.03-.31,0c-.46-.08-.66-.24-.88-.72-.07-.15-.07-.02-.09-.56s0-1.59,0-3.56-.02-3.08,0-3.59.02-.33.12-.56h-.03c.03-.07.32-.41.31-.41.32-.27.13-.19.66-.25s1.62-.09,3.78-.09Z"/>
</svg>