<?xml version="1.0" encoding="UTF-8"?>
<svg id="OBJECTS" xmlns="http://www.w3.org/2000/svg" viewBox="0 0 530.3 500">
  <defs>
    <style>
      .cls-1 {
        fill: #fff;
      }
    </style>
  </defs>
  <g>
    <path class="cls-1" d="m203.04,333.26c-.95-.17-1.86-.48-2.71-.93-.73-.39-1.42-.86-2.08-1.36-1.38-1.04-2.6-2.28-3.76-3.55-1.29-1.42-2.5-2.93-3.58-4.52-1.03-1.51-2.03-3.06-2.75-4.74-.17-.4-.34-.81-.46-1.23-.12-.4.13-.83.53-.93.4-.11.82.13.93.53.02.06.04.12.06.18,0-.01,0-.03-.01-.04.22.62.48,1.23.78,1.82-.01-.03-.03-.06-.04-.09.59,1.16,1.28,2.25,2,3.33,0-.01-.02-.02-.03-.04,1,1.48,2.09,2.88,3.27,4.23,0,0,0,0,0,0,.96,1.08,1.96,2.11,3.03,3.07-.02-.02-.05-.04-.08-.06.6.52,1.23,1.01,1.88,1.46-.02-.02-.05-.04-.08-.06.44.29.89.56,1.35.81.26.13.52.23.8.33.35.11.7.21,1.06.29.46.09.92.14,1.38.18,0,0-.01,0-.02,0,.01,0,.02,0,.04,0,.02,0,.04,0,.07,0-.01,0-.02,0-.03,0,.35.02.7.02,1.05,0,0,0-.02,0-.03,0,.42-.04.84-.1,1.25-.18.44-.09.87-.2,1.3-.34.58-.21,1.15-.45,1.7-.72.5-.25.97-.53,1.43-.84.65-.46,1.29-.95,1.89-1.47,0,0,0,0-.02.01.63-.56,1.22-1.18,1.78-1.81-.01.02-.02.03-.04.05.89-1.01,1.71-2.08,2.47-3.19-.02.02-.04.05-.06.08.98-1.46,1.87-2.98,2.7-4.53.2-.36.69-.47,1.04-.27.37.22.47.68.27,1.04-.9,1.67-1.85,3.3-2.93,4.86-.57.82-1.18,1.63-1.83,2.39-.68.8-1.38,1.58-2.16,2.3-.77.7-1.6,1.35-2.47,1.93-.89.6-1.87,1.06-2.87,1.45-.98.39-2.04.62-3.09.73-.28.03-.57.05-.86.05-.7,0-1.41-.08-2.1-.21Z"/>
    <path class="cls-1" d="m255.34,337.73c-.53-.08-1.07-.19-1.59-.34-.47-.13-.93-.34-1.37-.54-.88-.41-1.69-.94-2.48-1.5-1.69-1.2-3.2-2.63-4.61-4.15-1.4-1.54-2.73-3.17-3.88-4.91-1.1-1.65-2.12-3.38-3-5.16-.27-.55-.53-1.1-.74-1.68-.09-.24-.19-.51-.19-.77,0-.41.35-.76.76-.76.39,0,.71.3.75.67,0,0,0,0,0,0,0,0,0,0,0-.01,0,0,0,0,0,.01.02.1.06.19.09.29.23.64.52,1.25.83,1.86,0,0,0,0,0,0,.87,1.7,1.86,3.34,2.91,4.93-.02-.03-.04-.06-.05-.08.94,1.4,2,2.73,3.12,3.99,0-.01-.02-.02-.03-.03.9,1.02,1.84,1.99,2.85,2.9.85.74,1.74,1.45,2.67,2.08,0,0,0,0-.01,0,.44.29.89.56,1.35.8.38.19.77.36,1.17.51.32.1.65.18.98.25.44.09.89.16,1.34.21.37.02.73.02,1.09,0h0c.28-.02.56-.06.84-.11.42-.1.84-.23,1.25-.37,0,0,0,0-.01,0,.44-.17.87-.36,1.3-.57-.02,0-.04.02-.06.03.48-.24.94-.51,1.39-.8,0,0-.02.01-.02.02,0,0,.02-.01.03-.02.02-.01.04-.02.06-.04-.01,0-.03.02-.04.03.62-.43,1.22-.89,1.79-1.39,0,0-.01,0-.02.01.63-.56,1.22-1.16,1.78-1.79,0,0,0,.01-.01.02.75-.86,1.44-1.79,2.09-2.73,0,0,0,.01-.01.02.02-.02.03-.05.05-.07,0,0,0,0,0,0,0,0,0,0,0,0,1.15-1.73,2.18-3.54,3.12-5.4,0,.01-.01.03-.02.04.08-.16.16-.32.24-.48.18-.37.6-.57,1-.4.36.15.59.63.4,1-.87,1.78-1.83,3.54-2.9,5.21-1.02,1.59-2.14,3.15-3.46,4.51-1.39,1.44-2.97,2.74-4.77,3.63-.91.45-1.87.83-2.87,1.04-.54.11-1.09.16-1.64.16-.49,0-.98-.04-1.46-.11Z"/>
    <path class="cls-1" d="m313.5,340.06c-.54-.07-1.05-.21-1.56-.39-.5-.17-.99-.39-1.46-.64-.89-.47-1.72-1.07-2.5-1.7-.26-.21-.52-.43-.77-.66,0,0,0,0,0,0,0,0-.01-.01-.02-.02,0,0,0,0,0,0,0,0,0,0,0,0-1.29-1.14-2.46-2.4-3.59-3.7-1.31-1.5-2.58-3.06-3.76-4.67-.82-1.11-1.59-2.24-2.31-3.41-.35-.57-.69-1.15-1.01-1.74-.1-.18-.2-.37-.29-.55-.05-.1-.1-.2-.13-.31-.11-.4.13-.82.53-.93.37-.1.76.1.91.45,0,0,0,0,0-.01,0,0,0,.01,0,.02,0,0,0,.01,0,.02.03.07.06.13.09.2,0-.01-.01-.03-.02-.04.66,1.3,1.44,2.54,2.25,3.75-.02-.03-.04-.05-.05-.08,1.56,2.29,3.29,4.46,5.12,6.55-.02-.03-.04-.05-.06-.08,1.05,1.19,2.13,2.34,3.31,3.4,0,0,0,0,.01,0,0,0,.02.02.03.02,0,0,0,0,0,0,0,0,.01.01.02.02,0,0,0,0,0,0,0,0,0,0,0,0,.01.01.03.02.04.04,0,0-.02-.02-.03-.03.62.54,1.26,1.05,1.94,1.51,0,0-.01,0-.02-.01.39.26.8.51,1.23.73.39.18.79.35,1.19.49,0,0,0,0,0,0,.23.08.46.15.7.2.32.06.64.1.97.12,0,0,0,0,0,0,.26.02.53.03.79.02.35-.02.68-.08,1.02-.14-.01,0-.03,0-.04,0,.02,0,.04,0,.05-.01.01,0,.03,0,.04,0,0,0-.01,0-.02,0,.35-.07.69-.17,1.03-.28.38-.14.76-.31,1.12-.49,0,0,0,0,0,0,0,0,.01,0,.02-.01.02-.01.05-.02.07-.03-.02,0-.03.01-.04.02.4-.21.8-.43,1.18-.68.65-.44,1.26-.94,1.85-1.45.89-.79,1.72-1.63,2.52-2.53-.02.02-.04.05-.07.07,1.12-1.27,2.14-2.62,3.1-4.03-.02.03-.04.06-.06.08,1.46-2.17,2.73-4.46,3.94-6.78.19-.37.7-.47,1.04-.27.37.22.46.67.27,1.04-1.61,3.13-3.37,6.2-5.52,8.99-1.07,1.39-2.23,2.71-3.51,3.92-.67.63-1.37,1.23-2.1,1.79-.7.53-1.44.96-2.23,1.35-.72.35-1.47.61-2.26.78-.43.09-.86.17-1.3.19-.1,0-.19,0-.29,0-.44,0-.89-.04-1.33-.09Z"/>
    <path class="cls-1" d="m185.14,354.46c-.88-.41-1.67-.96-2.39-1.6-.6-.54-1.14-1.15-1.66-1.77-1.21-1.47-2.26-3.09-3.19-4.75-.83-1.47-1.53-3.02-2.13-4.59-.04-.09-.07-.19-.11-.28,0,0,0,0,0,0-.04-.09-.06-.19-.06-.3,0-.41.34-.76.76-.76.3,0,.57.19.7.47.06.14.11.29.17.44.13.32.25.65.39.97.3.71.62,1.4.96,2.09,0-.01-.01-.02-.02-.03,0,.01.01.03.02.04,0,.01.01.03.02.04,0,0,0-.01,0-.02.66,1.29,1.4,2.54,2.21,3.75,0-.02-.02-.03-.03-.05.62.91,1.28,1.79,2.01,2.62-.02-.02-.04-.05-.07-.07.37.41.74.8,1.14,1.16,0,0-.02-.01-.02-.02,0,0,.02.02.03.02.01.01.03.03.04.04-.01-.01-.02-.02-.03-.03.29.25.58.48.9.69.26.17.53.33.81.47.18.08.35.16.54.23.14.04.29.08.44.12.18.03.37.06.55.08.16,0,.32,0,.49,0-.02,0-.05,0-.08,0,.03,0,.06,0,.09,0,0,0,.01,0,.02,0,0,0-.01,0-.02,0,.15-.01.31-.03.46-.06.23-.05.45-.11.67-.19-.03.01-.06.02-.09.04.27-.1.54-.21.8-.33.34-.18.67-.38,1-.59.29-.2.56-.4.83-.63.42-.37.81-.78,1.18-1.2-.02.02-.04.05-.06.08.39-.45.75-.92,1.09-1.41.7-1.05,1.32-2.14,1.88-3.26.16-.32.32-.64.47-.96.18-.37.6-.57,1-.4.37.15.58.62.4.99-.82,1.73-1.71,3.46-2.85,4.99-.55.73-1.15,1.41-1.81,2.05-.64.62-1.4,1.14-2.18,1.56-.78.42-1.65.76-2.54.82-.15.01-.29.02-.44.02-.77,0-1.54-.15-2.24-.48Z"/>
    <path class="cls-1" d="m234.95,363.36c-.44-.04-.88-.13-1.31-.22-.45-.1-.88-.23-1.3-.43-.48-.23-.92-.55-1.34-.88-.42-.33-.8-.69-1.18-1.06-.58-.57-1.12-1.18-1.64-1.8-1.22-1.45-2.29-3.02-3.26-4.65-.65-1.09-1.27-2.22-1.82-3.36-.24-.5-.46-1-.66-1.51-.08-.19-.15-.39-.23-.59-.05-.13-.1-.26-.13-.4-.05-.38.17-.75.55-.85.38-.11.81.12.93.51.3.85.67,1.68,1.07,2.49,0,0,0-.01,0-.02,0,.01.01.02.02.03,0,0,0,0,0,0,0,0,0,0,0,0,.82,1.62,1.71,3.2,2.71,4.7,0-.01-.02-.03-.03-.04.77,1.13,1.6,2.22,2.49,3.25,0,0,0-.01-.01-.02.3.35.62.68.95,1.01.17.17.34.33.51.49.09.09.19.18.29.27.06.05.12.1.18.15.25.21.51.41.78.59.14.09.29.18.44.27.15.07.3.13.46.19.28.08.57.15.86.21.31.06.62.11.94.14.31.02.62.01.93,0-.02,0-.03,0-.05,0,.02,0,.03,0,.05,0,.02,0,.03,0,.05,0-.01,0-.03,0-.04,0,.28-.03.56-.07.84-.12.15-.03.31-.08.46-.13.29-.1.58-.21.85-.35-.02,0-.03.02-.05.03.02,0,.04-.02.05-.03.01,0,.02-.01.03-.02,0,0-.01,0-.02,0,.23-.12.46-.24.68-.38.26-.19.51-.38.76-.59,0,0-.01.01-.02.02.01,0,.02-.02.03-.03.01-.01.03-.02.04-.03-.01,0-.02.02-.03.03.31-.28.61-.58.89-.89.47-.54.89-1.11,1.3-1.7-.02.03-.04.05-.05.08.98-1.46,1.82-3,2.61-4.56.57-1.14,1.11-2.29,1.62-3.45.17-.38.61-.57,1-.4.38.16.57.62.4,1-.79,1.79-1.63,3.56-2.58,5.28-.44.79-.89,1.58-1.38,2.34-.5.79-1.04,1.57-1.66,2.27-.63.72-1.34,1.44-2.16,1.95-.7.44-1.47.79-2.27,1-.58.15-1.19.22-1.8.22-.26,0-.51-.01-.76-.03Z"/>
    <path class="cls-1" d="m285.92,362.6c-.45-.09-.89-.22-1.32-.4-.42-.18-.83-.37-1.23-.59-.36-.21-.71-.45-1.04-.7-.67-.51-1.31-1.06-1.92-1.63-1.3-1.21-2.47-2.58-3.55-3.99-.69-.91-1.36-1.84-1.94-2.83-.3-.5-.57-1-.83-1.52-.06-.11-.11-.23-.16-.36-.05-.12-.11-.26-.12-.39-.03-.41.22-.8.65-.85.38-.05.8.22.85.62,0,.01,0,.03.01.04.05.13.11.25.16.37,0,0,0,0,0,0,.41.82.89,1.61,1.4,2.38,0,0-.01-.01-.02-.02.9,1.31,1.87,2.56,2.92,3.75-.02-.02-.04-.05-.07-.07.73.82,1.5,1.59,2.33,2.32.54.47,1.09.91,1.68,1.32.19.12.39.24.59.35-.03-.02-.06-.03-.09-.05.42.21.84.41,1.28.58-.03-.01-.06-.02-.09-.03.23.08.46.14.7.19,0,0-.02,0-.02,0,.03,0,.05,0,.08.01,0,0,.02,0,.02,0,0,0,0,0-.01,0,.28.05.57.09.86.12-.04,0-.07,0-.1,0,.26.01.5.01.76,0,.24-.02.49-.05.73-.1.19-.04.38-.09.57-.15.53-.19,1.04-.41,1.55-.65.33-.17.64-.36.94-.56.41-.28.81-.59,1.18-.92.28-.25.54-.51.79-.79.42-.48.8-.99,1.16-1.51.6-.9,1.12-1.85,1.61-2.81,0,0,0-.01,0-.02,0,0,0,0,0,0,0-.01.01-.02.02-.03,0,0,0,.01-.01.02.96-1.93,1.76-3.94,2.51-5.95.14-.39.63-.56,1-.41.39.17.55.61.4,1-.68,1.85-1.42,3.69-2.27,5.47-.8,1.67-1.71,3.3-2.86,4.76-.64.8-1.39,1.5-2.21,2.12-.4.3-.82.57-1.25.81-.43.24-.89.44-1.34.63-.47.2-.95.36-1.45.47-.48.1-.98.15-1.47.15-.01,0-.03,0-.04,0-.45,0-.89-.06-1.33-.15Z"/>
    <path class="cls-1" d="m339.01,359.88c-.52-.12-1.02-.34-1.5-.57-.4-.2-.78-.42-1.16-.66-.69-.46-1.31-1.03-1.9-1.61-.63-.62-1.2-1.3-1.75-1.99-1.23-1.54-2.34-3.18-3.32-4.89-.41-.72-.82-1.46-1.18-2.2-.13-.27-.26-.55-.35-.84-.15-.49.17-1.04.72-1.04.37,0,.68.27.75.62,0,.01,0,.02,0,.03.09.23.19.46.3.68.76,1.52,1.63,2.99,2.58,4.41-.02-.02-.04-.05-.06-.08.79,1.16,1.63,2.28,2.56,3.34,0,0,0-.01-.01-.02.48.54.98,1.07,1.52,1.55.29.26.6.5.91.73.32.21.66.41,1,.59.28.13.56.25.84.36.17.06.34.11.52.15.12.02.23.04.35.05.25.01.5,0,.75-.01.13-.01.26-.03.4-.06.12-.03.25-.06.37-.1.12-.04.24-.09.35-.14-.03.02-.06.03-.09.05.39-.2.76-.43,1.13-.67-.01,0-.03.02-.04.03.23-.16.44-.32.65-.5.37-.34.73-.69,1.06-1.06-.02.02-.04.05-.06.08.36-.41.69-.84,1-1.29.38-.57.71-1.17,1.03-1.78,0,0,0,0,0,.01,0-.02.02-.04.03-.05,0-.01.01-.02.02-.03,0,0,0,0,0,.01.51-1.03.94-2.09,1.32-3.17,0,0,0,0,0,.01.5-1.45.89-2.93,1.25-4.42.09-.4.55-.64.93-.53.41.11.63.53.53.93-.4,1.69-.86,3.38-1.45,5.01-.32.87-.67,1.73-1.08,2.56-.44.91-.93,1.8-1.52,2.62-.58.8-1.23,1.54-1.97,2.2-.37.33-.76.62-1.18.88-.4.25-.82.51-1.26.67-.58.2-1.19.31-1.81.31-.4,0-.79-.04-1.17-.13Z"/>
    <path class="cls-1" d="m210.69,387.64c-.56,0-1.12-.12-1.65-.27-.88-.25-1.7-.78-2.39-1.37-.63-.53-1.19-1.14-1.73-1.77-1.11-1.32-2.07-2.77-2.97-4.24-.42-.68-.8-1.37-1.19-2.07-.19-.34-.38-.68-.55-1.03-.07-.14-.14-.29-.2-.44-.1-.37.06-.77.43-.92.37-.16.85.02.99.4.02.04.02.07.04.1-.01-.03-.02-.06-.03-.09.05.13.12.26.18.39-.02-.03-.03-.06-.04-.09.38.76.82,1.49,1.23,2.23.47.82.97,1.62,1.5,2.4,0,0,0,0,0,0,.65.97,1.34,1.91,2.11,2.78,0,0,0,0,0,0,0,0,0,0,0,0,0,0,.01.01.02.02,0,0,0-.01-.02-.02.33.37.67.73,1.04,1.05,0,0-.01,0-.02-.01.23.19.45.38.7.55.23.15.47.3.72.43.15.07.3.14.46.2.21.07.42.12.63.17,0,0,0,0,0,0,.19.04.38.07.57.09.2,0,.39,0,.58-.01.22-.02.44-.05.65-.09-.03,0-.06.02-.1.02.21-.05.41-.1.61-.16.26-.09.5-.2.75-.32,0,0,0,0,0,0,.14-.08.27-.15.41-.24.21-.14.4-.29.59-.45,0,0,0,0-.01,0,.28-.24.55-.51.8-.79.36-.41.68-.85.99-1.3,0,0,0,.01-.01.02.65-.98,1.24-2,1.77-3.05,0,0,0,0,0,.01,0-.02.02-.04.03-.06,0-.01.01-.02.02-.03,0,0,0,0,0,0,.53-1.07,1.01-2.16,1.46-3.27.15-.38.62-.56.99-.4.39.16.56.61.41,1-.66,1.62-1.38,3.22-2.24,4.75-.85,1.52-1.81,3.03-3.13,4.19-.8.71-1.74,1.24-2.78,1.5-.51.13-1.04.19-1.56.19-.02,0-.03,0-.05,0Z"/>
    <path class="cls-1" d="m262.31,391.45c-.55-.01-1.11-.13-1.63-.3-.87-.27-1.69-.7-2.43-1.23-.67-.48-1.29-1.06-1.86-1.65-.65-.67-1.25-1.39-1.8-2.15-1.21-1.67-2.26-3.45-3.12-5.32-.27-.59-.52-1.18-.74-1.78-.15-.41-.38-.9-.07-1.29.26-.33.74-.39,1.07-.14.14.11.23.26.27.42h0s0,0,0,0c0,.01,0,.03,0,.04.02.07.04.14.06.21.35.99.79,1.95,1.26,2.89,0,0,0,0,0,0,0,0,0,0,0,.01.01.02.02.05.04.07,0,0,0,0,0-.01.58,1.13,1.23,2.21,1.93,3.26,0-.01-.02-.03-.03-.04.5.74,1.03,1.45,1.62,2.13.47.52.96,1.02,1.49,1.49-.02-.02-.05-.04-.08-.06.31.27.62.53.95.77.3.2.6.37.91.54-.01,0-.03-.01-.04-.02.02,0,.03.02.05.02,0,0,0,0,0,0,0,0,0,0,0,0,.26.13.53.25.82.35.25.08.5.14.75.2.17.03.34.05.51.07.13,0,.25,0,.38,0,.11-.01.22-.03.33-.05.2-.05.4-.11.6-.17h0s0,0,0,0c.03-.01.06-.02.09-.03-.02,0-.05.01-.07.02.26-.1.53-.21.78-.33.39-.21.77-.43,1.14-.67,0,0,0,0-.01,0,.34-.24.67-.49.98-.77,0,0-.02.02-.03.03.01-.01.03-.03.04-.04,0,0,.02-.02.03-.03,0,0-.02.01-.02.02.5-.45.96-.95,1.4-1.46-.02.02-.04.05-.07.07.52-.6,1-1.22,1.45-1.87-.02.02-.04.05-.06.08.71-1.07,1.34-2.18,1.92-3.32,0,0,0-.01,0-.02,0,0,0,0,0,0,0-.01.01-.02.02-.04,0,0,0,.01,0,.02.59-1.2,1.14-2.41,1.67-3.63.17-.38.61-.57,1-.4.38.16.57.62.4,1-.76,1.75-1.56,3.49-2.48,5.18-.47.86-1,1.69-1.57,2.5-.55.78-1.18,1.5-1.83,2.19-.66.7-1.38,1.33-2.18,1.86-.76.49-1.57.92-2.45,1.18-.43.13-.86.2-1.31.2-.03,0-.07,0-.1,0Z"/>
    <path class="cls-1" d="m316.56,387.54c-.53-.11-1.03-.32-1.52-.56-1.02-.5-1.9-1.21-2.71-2-.59-.56-1.14-1.16-1.67-1.78-1.18-1.39-2.25-2.9-3.18-4.47-.24-.4-.47-.82-.68-1.23.02.03.03.06.05.09-.25-.49-.48-.98-.68-1.48-.09-.23-.21-.5-.21-.76,0-.41.34-.76.76-.76.38,0,.7.29.75.65,0,.02.01.04.02.06,0-.01,0-.03-.01-.04,0,.02.01.03.02.05,0,.02,0,.03.01.05,0-.01,0-.02,0-.03.19.52.43,1.03.67,1.52,0-.01-.01-.02-.02-.04,0,.02.02.04.03.05.49.96,1.06,1.87,1.66,2.76-.02-.03-.04-.06-.05-.08.73,1.08,1.52,2.11,2.38,3.09-.02-.02-.04-.05-.06-.08.57.65,1.18,1.27,1.83,1.85-.02-.02-.05-.04-.08-.06.31.27.63.53.96.77.28.18.57.35.86.51-.02-.01-.04-.02-.06-.03.29.14.57.27.88.38.13.04.27.07.41.11-.02,0-.04,0-.06,0,.03,0,.05,0,.08.01,0,0,.01,0,.02,0,0,0-.01,0-.02,0,.27.05.55.09.82.12.21,0,.42,0,.64,0,.18-.02.36-.04.54-.08.2-.05.41-.1.6-.16.2-.08.41-.16.6-.26.17-.08.33-.18.48-.28.23-.16.45-.33.67-.52.3-.28.59-.57.86-.88.42-.5.81-1.02,1.18-1.56-.02.03-.04.06-.06.08.65-.96,1.22-1.97,1.74-3.01.97-1.94,1.73-3.97,2.44-6.01,0,.02,0,.03-.01.05.1-.28.2-.57.29-.86.13-.39.52-.64.94-.53.38.11.66.54.53.93-1.15,3.4-2.41,6.83-4.38,9.85-.49.75-1.01,1.48-1.61,2.16-.61.69-1.31,1.35-2.12,1.8-.9.51-1.91.8-2.94.82-.04,0-.07,0-.11,0-.5,0-1-.07-1.48-.18Z"/>
    <path class="cls-1" d="m226.1,298.12s-.05,0-.08.01c.02,0,.03,0,.05,0-.91.12-1.83.19-2.76.2-.76,0-1.51-.04-2.25-.12-.61-.08-1.21-.19-1.8-.34-.78-.21-1.54-.47-2.29-.76,0,0,0,0,0,0,0,0,0,0-.01,0-.03-.01-.05-.02-.08-.03.02,0,.04.01.05.02-.74-.3-1.46-.65-2.16-1.02-.43-.25-.84-.51-1.24-.8-.61-.46-1.2-.95-1.75-1.47-.61-.59-1.18-1.21-1.71-1.87-.42-.54-.8-1.1-1.16-1.67-.48-.81-.92-1.66-1.3-2.52-.53-1.25-.97-2.52-1.34-3.82-.16-.58-.3-1.16-.42-1.75-.03-.16-.06-.32-.1-.48-.02-.13-.04-.25-.1-.37-.1-.22-.31-.33-.54-.37-.34-.26-.8-.18-1.07.14-.11.13-.22.26-.33.39,0,0,0-.01.01-.02-.56.64-1.16,1.26-1.8,1.83-.46.4-.94.77-1.44,1.12-.41.27-.83.52-1.27.75,0,0,.01,0,.02,0,0,0-.01,0-.02,0-.01,0-.03.01-.04.02,0,0,.02,0,.03-.01-.25.12-.5.23-.76.33-.38.13-.75.23-1.14.31-.23.04-.46.08-.69.1-.26.01-.52.01-.79,0-.28-.03-.57-.06-.85-.12-.22-.05-.42-.1-.63-.17,0,0,.02,0,.02,0,0,0-.02,0-.03-.01-.02,0-.04-.01-.07-.02.02,0,.03,0,.05.02-.3-.11-.58-.23-.86-.36,0,0,.02.01.03.02-.01,0-.03-.01-.04-.02-.01,0-.03-.01-.04-.02,0,0,.02,0,.03.01-.21-.11-.43-.23-.63-.36-.25-.17-.49-.35-.71-.54.02.01.03.03.05.04-.02-.02-.03-.03-.05-.05,0,0-.01-.01-.02-.02,0,0,.01.01.02.02-.19-.17-.38-.34-.55-.53-.26-.3-.5-.62-.73-.95-.27-.41-.52-.84-.74-1.29-.37-.77-.69-1.56-.98-2.37-.35-1.03-.62-2.09-.84-3.16,0,0,0,0,0,.01,0-.02,0-.04-.01-.06,0-.01,0-.03,0-.04,0,0,0,0,0,.01-.23-1.17-.39-2.35-.48-3.54,0,0,0,0,0,0-.04-.61-.06-1.23-.06-1.85,0-.2,0-.4,0-.59,0-.13,0-.27-.03-.39-.09-.32-.39-.56-.73-.56-.41,0-.76.35-.76.76h0s0,.05,0,.08c0,.15,0,.3,0,.44,0,.41,0,.82.02,1.22.04.9.1,1.8.22,2.69.25,1.84.63,3.66,1.23,5.41.57,1.66,1.29,3.32,2.38,4.7.51.65,1.11,1.21,1.79,1.68.8.55,1.71.99,2.67,1.2.58.13,1.16.2,1.74.2.49,0,.97-.05,1.45-.15,1.04-.22,2.01-.61,2.93-1.15,1.46-.87,2.7-2.02,3.84-3.27.04.16.07.33.11.49.18.77.4,1.53.64,2.28.51,1.58,1.14,3.12,1.93,4.58.48.87,1.01,1.72,1.62,2.51.58.74,1.2,1.43,1.88,2.09.68.66,1.4,1.27,2.17,1.82.78.56,1.63,1.02,2.49,1.43.86.41,1.76.76,2.67,1.04.98.3,1.99.53,3.01.64.74.08,1.48.12,2.22.12,1.07,0,2.15-.08,3.21-.23.41-.06.67-.51.59-.9-.09-.42-.49-.65-.9-.59Z"/>
    <path class="cls-1" d="m262.47,304.42c-.44-.02-.87-.05-1.3-.13-1-.2-1.95-.59-2.86-1.06-.94-.49-1.84-1.08-2.7-1.7-.77-.57-1.51-1.18-2.24-1.8-.21-.18-.43-.37-.63-.56-.19-.19-.37-.35-.44-.62-.1-.4.2-.82.59-.89.39-.08.74.16.87.52,0,0,0-.01,0-.02-.01-.03-.02-.06-.04-.09-.02-.03-.03-.06-.05-.08h0s-.04-.05-.06-.07c-.02-.02-.04-.04-.06-.06.27.28.56.53.86.78.54.45,1.08.91,1.64,1.34,0,0-.01,0-.02-.01.72.56,1.47,1.07,2.26,1.54.58.34,1.18.64,1.8.91.27.11.54.2.81.28.3.08.6.15.9.19.41.04.83.06,1.25.06.28,0,.56-.03.85-.06.32-.04.64-.11.96-.19-.03,0-.06.02-.09.02.28-.08.54-.18.81-.28.05-.02.11-.04.16-.07-.02,0-.04.02-.06.02.55-.23,1.08-.5,1.6-.8,0,0-.01,0-.02,0,0,0,.02-.01.03-.02.01,0,.02-.01.04-.02,0,0-.01,0-.02,0,.67-.4,1.31-.84,1.94-1.31,1.09-.83,2.11-1.75,3.09-2.71-.02.02-.04.05-.07.07.62-.61,1.22-1.24,1.81-1.88.28-.3.76-.34,1.07-.06.3.27.34.77.06,1.07-2.47,2.67-5.19,5.29-8.53,6.85-.17.08-.34.15-.5.22.01,0,.02-.01.04-.02-.78.32-1.59.53-2.43.61-.27.02-.55.04-.82.04-.17,0-.34,0-.51-.01Z"/>
  </g>
  <g>
    <path class="cls-1" d="m415.59,283.65c-.43-.06-.68-.44-.65-.86,0-.11.02-.22.02-.33h0s0,0,0,0c0-.03,0-.07,0-.1,0,.01,0,.02,0,.04.1-1.58.12-3.18.02-4.77,0,.04,0,.07,0,.1-.09-1.3-.22-2.6-.46-3.88,0,0,0,.01,0,.02,0-.01,0-.02,0-.04,0-.02,0-.04-.01-.06,0,0,0,.02,0,.02-.12-.56-.26-1.11-.44-1.65-.06-.16-.13-.32-.2-.48-.16-.38.03-.83.41-.99.38-.16.83.02.99.4.64,1.47.88,3.08,1.06,4.66.23,1.95.27,3.91.19,5.86-.02.47-.05.94-.08,1.4-.03.38-.4.65-.77.65-.03,0-.06,0-.09,0Z"/>
    <path class="cls-1" d="m417.89,290.26c-.38-.11-.66-.54-.53-.94.53-1.58.96-3.2,1.3-4.84,0,0,0,.01,0,.02,0-.03.01-.06.02-.09,0,0,0,0,0-.01,0,0,0,0,0,0,.09-.46.18-.93.24-1.39.07-.53.12-1.07.16-1.61,0,0,0,0,0,.01.02-.32.04-.65.03-.97,0-.13-.02-.27-.02-.4,0-.42.35-.76.76-.76s.76.34.76.76c0,.13.01.27.02.4,0,.36-.01.72-.04,1.08-.07.9-.17,1.8-.34,2.68-.35,1.87-.83,3.72-1.44,5.53-.11.33-.4.56-.74.56-.06,0-.13,0-.2-.03Z"/>
    <path class="cls-1" d="m424.88,255.94c0-.8-.03-1.61-.09-2.41,0,0,0,0,0,0-.11-1.51-.3-3.02-.6-4.5,0,.04.02.07.02.1-.19-.92-.42-1.84-.72-2.74,0,.02,0,.03.02.05-.02-.07-.06-.14-.08-.21-.08-.4.11-.82.53-.93.38-.1.85.13.93.53h0c.51,1.47.84,3,1.07,4.54.27,1.85.42,3.7.43,5.57,0,.42-.35.76-.76.76s-.76-.34-.76-.76Z"/>
  </g>
  <g>
    <path class="cls-1" d="m127.43,174.42c-.35-.23-.45-.7-.23-1.05,1.05-1.73,2.2-3.39,3.49-4.95.66-.81,1.34-1.6,2.08-2.34.7-.7,1.45-1.36,2.24-1.95.19-.14.38-.28.58-.41.34-.23.82-.15,1.06.2.23.34.15.82-.19,1.06-.31.21-.62.43-.92.67-.71.58-1.38,1.19-2.02,1.85.01-.01.03-.03.04-.04-1.13,1.18-2.15,2.47-3.12,3.78.02-.03.04-.06.06-.08-.71.99-1.37,2-2.01,3.03-.14.23-.39.35-.65.35-.14,0-.28-.04-.4-.11Z"/>
    <path class="cls-1" d="m129.49,183.89c-.39-.07-.71-.47-.62-.87.39-1.73.92-3.42,1.62-5.05.33-.76.71-1.5,1.11-2.22.42-.74.88-1.47,1.42-2.14.06-.07.12-.13.17-.2,0,.01-.02.03-.03.04.24-.31.68-.41,1.02-.19.34.22.46.7.24,1.05-.05.08-.11.14-.17.21-.13.15-.25.32-.37.48.02-.03.04-.06.06-.08-.44.61-.83,1.25-1.19,1.91,0,0,0,0,0,0-.49.91-.92,1.84-1.29,2.81-.4,1.08-.74,2.18-1.02,3.3,0-.03.02-.06.02-.1-.04.15-.07.3-.11.45-.08.36-.38.63-.74.63-.04,0-.09,0-.13-.01Z"/>
    <path class="cls-1" d="m142.41,146.62c-.32-.26-.36-.75-.09-1.07,2.36-2.83,5.05-5.41,8.11-7.48.07-.05.13-.09.2-.14-.03.02-.06.04-.08.06-.02.02-.04.04-.07.07h0c.27-.31.75-.36,1.07-.09.31.26.37.76.09,1.07-.09.11-.22.19-.34.27-.19.13-.38.25-.56.38-.53.37-1.04.77-1.55,1.17,0,0,.01,0,.02-.01-.01.01-.03.02-.04.04-.01,0-.02.02-.03.03,0,0,0,0,.01,0-1.29,1.04-2.5,2.19-3.65,3.38,0,0,0,0,0,0-.7.73-1.37,1.48-2.02,2.25-.15.18-.36.27-.58.27-.17,0-.35-.06-.49-.18Z"/>
  </g>
  <g>
    <path class="cls-1" d="m321.24,97.02c-.86-.24-1.68-.61-2.44-1.08-1.66-1.04-2.96-2.55-3.95-4.22-.75-1.27-1.37-2.62-1.86-4-.24-.66-.45-1.32-.62-2-.06-.24-.11-.49-.15-.73-.04-.26-.07-.5.03-.75.16-.38.65-.53,1.01-.36.34.16.49.53.41.87,0-.02.01-.03.02-.05,0-.03,0-.07,0-.1v.02-.1c0,.08.01.15.02.23,0-.04-.01-.07-.02-.1.08.46.19.91.32,1.36,0,0,0,0,0,0,0,0,0,.01,0,.02,0,.03.01.05.02.08,0-.01,0-.02,0-.04.31.99.67,1.95,1.09,2.9.35.76.73,1.49,1.16,2.21.3.48.62.94.97,1.39-.02-.03-.04-.05-.06-.08.32.39.66.76,1.02,1.11.25.24.51.46.79.67.33.24.67.46,1.02.66.29.15.59.29.89.42.31.12.62.21.94.29.26.06.51.1.78.14.28.02.57.03.85.03.55-.02,1.09-.08,1.63-.15,0,0-.01,0-.02,0,.02,0,.04,0,.05,0,.01,0,.03,0,.04,0,0,0-.01,0-.02,0,.45-.08.89-.18,1.33-.3.89-.27,1.77-.6,2.62-.99,1.08-.5,2.12-1.08,3.13-1.69,0,0,0,0-.01,0,0,0,.02-.01.03-.02.02-.01.04-.02.05-.03,0,0-.01,0-.02.01.48-.3.96-.62,1.43-.93.34-.23.82-.16,1.06.18.24.33.16.83-.18,1.06-1.61,1.09-3.28,2.09-5.06,2.89-.77.35-1.56.65-2.37.9-.5.15-1,.29-1.52.38-.51.09-1.02.16-1.54.2-.25.02-.51.03-.76.03-.72,0-1.43-.08-2.12-.27Z"/>
    <path class="cls-1" d="m362.64,105.47c-1.76-.13-3.44-.75-4.99-1.58-1.03-.55-2.01-1.21-2.95-1.9.02.01.04.03.05.04-1.07-.79-2.07-1.65-3-2.59-.5-.51-.98-1.04-1.44-1.58-.19-.22-.37-.44-.56-.66-.09-.11-.17-.22-.26-.32,0,0,0,0,0,0,0,0,0,0,0,0,0,0,0,0,0,0,0,0,0,0,0,0,.02.02.05.03.07.05h0s.06.03.09.05c.02,0,.03.01.05.02-.09-.04-.17-.09-.24-.16,0,0-.01-.01-.02-.02,0,0,0,0,0,0-.2-.2-.28-.49-.2-.77.13-.38.57-.63.96-.49.25.09.4.28.57.47.24.29.48.59.73.87.59.69,1.21,1.35,1.86,1.98,0,0-.01-.01-.02-.02.02.02.03.03.05.05,0,0,.01.01.02.02,0,0,0,0-.01-.01.69.65,1.41,1.25,2.17,1.82,0,0,0,0,0,0,0,0,0,0,0,0,.03.02.05.04.08.06,0,0-.01-.01-.02-.02.02.01.04.03.06.04,0,0-.01,0-.02-.01.81.6,1.66,1.15,2.55,1.65.55.3,1.12.57,1.71.81-.03-.01-.06-.02-.09-.04.48.19.96.35,1.46.48.41.1.83.17,1.24.22.36.04.73.05,1.1.04h-.1c.33-.01.65-.04.97-.08,0,0-.02,0-.02,0,.01,0,.03,0,.04,0,.02,0,.04,0,.06,0-.01,0-.03,0-.04,0,.36-.06.71-.15,1.06-.25,0,0,0,0-.01,0,.29-.1.57-.2.85-.33,0,0,0,0-.01,0,.26-.13.52-.26.77-.41.15-.1.3-.2.45-.3.34-.24.82-.16,1.06.18.24.34.16.82-.18,1.06-.9.63-1.88,1.09-2.94,1.37-.71.19-1.46.28-2.2.28-.25,0-.49,0-.73-.03Z"/>
    <path class="cls-1" d="m289.82,81.37c-1.95-.04-3.9-.23-5.81-.64-1.68-.36-3.32-.93-4.82-1.76-1.1-.61-2.12-1.35-3.03-2.22-1.11-1.06-2.03-2.28-2.75-3.62-.19-.37-.09-.83.28-1.04.35-.2.84-.09,1.04.28.23.43.47.85.74,1.25.3.43.61.84.96,1.24-.02-.03-.04-.05-.07-.08.43.48.88.93,1.37,1.36-.01-.01-.02-.02-.04-.03.02.01.03.03.05.04,0,0,0,0,0,0,0,0,0,0,0,0,.41.34.83.66,1.28.96,0,0,0,0,0,0,.53.34,1.08.65,1.65.93,0,0,0,0-.01,0,.63.3,1.29.55,1.95.77-.03-.01-.06-.02-.09-.03.82.26,1.65.47,2.49.63-.03,0-.06-.01-.1-.02,1.25.23,2.51.38,3.77.45-.04,0-.07,0-.1,0,1.34.07,2.68.07,4.02-.02,0,0-.01,0-.02,0,.9-.07,1.8-.19,2.69-.36,0,0-.02,0-.02,0,.03,0,.06-.01.09-.02,0,0,0,0,0,0,0,0,0,0,0,0,1.01-.21,2-.47,2.97-.8,0,0-.01,0-.02,0,.21-.07.42-.14.62-.23.33-.2.77-.13,1.01.18.25.33.19.81-.14,1.06-.15.12-.34.18-.52.25-.39.15-.78.28-1.18.4-.88.27-1.78.49-2.68.67-1.61.32-3.26.43-4.9.43-.22,0-.45,0-.67,0Z"/>
  </g>
  <path class="cls-1" d="m186.52,237.36c5.3,2.77,11.12,4.58,17.04,5.34,6.02.77,12.17.56,18.13-.53,6.07-1.11,11.94-3.08,17.51-5.7,6-2.82,11.66-6.3,16.91-10.34,1.59-1.23,3.14-2.5,4.65-3.81,0,0-.01.01-.02.02,5.05-4.41,9.63-9.31,13.78-14.58,4.19-5.32,7.92-10.97,11.13-16.94,2.89-5.39,5.32-11,7.31-16.78,1.87-5.42,3.31-10.98,4.28-16.63.91-5.23,1.39-10.53,1.45-15.84.06-5.66-.32-11.33-1.24-16.91-.28-1.7-.61-3.38-.99-5.06-.17.11-.39.16-.6.13-.03.03-.06.06-.09.08-.29.23-.66.3-1.01.16-.34-.15-.65-.36-.94-.58.27,1.12.5,2.25.72,3.38,0,0,0,0,0,0,0,.01,0,.03,0,.04h0s0,0,0,.01c.71,3.72,1.17,7.48,1.42,11.25,0,0,0-.01,0-.02.26,4.23.26,8.48,0,12.71,0-.05,0-.11,0-.16-.27,4.21-.82,8.38-1.61,12.52,0,0,0-.01,0-.02,0,.01,0,.02,0,.04,0,.04-.01.08-.02.12,0-.01,0-.02,0-.03-.87,4.39-2.02,8.72-3.43,12.96-1.53,4.58-3.34,9.06-5.44,13.42.02-.05.05-.1.07-.15-2.2,4.53-4.7,8.91-7.48,13.12.02-.03.05-.07.07-.1-2.85,4.29-6.01,8.39-9.39,12.28.04-.04.08-.09.12-.13-3.02,3.44-6.23,6.7-9.68,9.72.04-.04.09-.08.13-.11-.09.08-.18.15-.27.23-3.17,2.75-6.51,5.29-10.01,7.61.01,0,.03-.02.04-.03-3.18,2.09-6.5,3.98-9.93,5.65.02,0,.04-.02.06-.03-.04.02-.08.04-.13.06,0,0-.01,0-.02,0h0c-2.93,1.4-5.93,2.65-9.01,3.69-2.65.88-5.34,1.58-8.08,2.13-2.55.49-5.13.83-7.73.99.05,0,.11,0,.16,0-2.43.14-4.87.13-7.3-.01-2.06-.14-4.11-.39-6.14-.78-2.17-.43-4.29-.98-6.38-1.68h0s0,0-.01,0h0c-1.91-.65-3.78-1.41-5.6-2.27,0,0,.01,0,.03.01-.02,0-.03-.02-.05-.03-.03-.02-.06-.03-.1-.05.02.01.05.02.07.03-1.9-.93-3.74-1.98-5.51-3.14,0,0,0,0,.01.01-1.78-1.19-3.49-2.49-5.12-3.9-1.64-1.44-3.19-2.99-4.63-4.63-1.62-1.87-3.11-3.84-4.48-5.9.03.04.06.09.09.14-1.43-2.17-2.73-4.42-3.87-6.75.01.02.02.05.03.07-1.24-2.59-2.31-5.25-3.23-7.97,0,.02.01.03.02.05-.02-.04-.03-.09-.04-.13,0-.03-.02-.05-.03-.07,0,0,0-.01,0-.02-.01-.04-.02-.08-.04-.13-.18-.55-.35-1.1-.52-1.65-.64-2.15-1.18-4.33-1.62-6.54,0,.01,0,.02,0,.03,0-.04-.01-.08-.02-.11,0-.01,0-.03,0-.04t0,0c-.61-3.22-.99-6.48-1.22-9.76,0,0,0,0,0,0-.23-3.69-.24-7.37-.01-11.06h0c.27-4.1.81-8.18,1.59-12.22h0s0-.02,0-.03c0-.03.01-.06.02-.09,0,0,0,0,0,0,.9-4.55,2.1-9.03,3.55-13.44,0,.03-.02.05-.03.08,1.62-4.86,3.57-9.6,5.8-14.22h0c2.14-4.41,4.55-8.68,7.25-12.78-.03.05-.06.1-.09.14,2.48-3.76,5.23-7.34,8.18-10.74,3.36-3.84,6.97-7.45,10.81-10.81,2.59-2.26,5.27-4.42,8.08-6.41-1.09-.23-2.17-.46-3.25-.71-.02,0-.04,0-.06-.01-1.5,1.13-2.97,2.31-4.42,3.51-4.5,3.75-8.71,7.84-12.58,12.22-2.04,2.31-3.98,4.69-5.81,7.17-1.71,2.31-3.31,4.7-4.82,7.14-3.31,5.35-6.12,10.99-8.54,16.79-2.43,5.85-4.41,11.9-5.82,18.08-1.38,6.05-2.27,12.22-2.52,18.43-.14,3.43-.05,6.85.21,10.27.26,3.41.72,6.79,1.42,10.14.33,1.55.71,3.1,1.15,4.63.22.78.46,1.56.71,2.34.05.16.1.34.16.5,0,.02.02.04.03.06,0,0,0,.01,0,.02.06.25.17.5.25.74.13.39.27.77.41,1.16.56,1.52,1.16,3.03,1.82,4.52,2.54,5.77,6.02,11.15,10.26,15.82.53.58,1.08,1.16,1.64,1.72,3.63,3.63,7.82,6.7,12.37,9.07Z"/>
  <path class="cls-1" d="m185.41,227.23c4.27,2.91,8.98,5.13,13.98,6.47,5.02,1.35,10.26,1.82,15.45,1.54,2.74-.15,5.46-.52,8.15-1.05,2.83-.55,5.62-1.3,8.35-2.22,5.56-1.88,10.87-4.54,15.82-7.68,5.12-3.25,9.86-7.08,14.2-11.32,4.58-4.45,8.66-9.42,12.31-14.65,3.72-5.34,6.87-11.04,9.52-16.98,2.49-5.59,4.47-11.39,5.88-17.34,1.53-6.46,2.36-13.07,2.52-19.7.08-3.2-.04-6.41-.34-9.6-.14-1.49-.32-2.98-.53-4.46-.11-.74-.23-1.48-.36-2.22-.06-.34-.12-.68-.19-1.02,0-.03-.01-.05-.02-.08,0-.01,0-.03,0-.05-.08-.39-.15-.78-.23-1.16-.28-1.35-.6-2.68-.95-4.01-.67-2.55-1.49-5.08-2.44-7.54-.2-.51-.41-1.03-.62-1.54,0,0-.01,0-.02-.02-.81-.52-1.6-1.08-2.39-1.63-.56-.39-1.12-.78-1.68-1.18.19.37.37.74.55,1.11-.03-.05-.05-.1-.08-.15,1.16,2.4,2.15,4.89,2.99,7.42-.02-.05-.04-.1-.05-.15.68,2.06,1.28,4.15,1.78,6.26.13.57.26,1.14.38,1.7.06.31.13.62.19.93.02.09.03.18.05.27,0,0,0,0,0,0,0,.04.01.08.02.11,0,.01,0,.03,0,.04.63,3.31,1.04,6.65,1.26,10.01,0-.03,0-.06,0-.1.22,3.61.2,7.22-.03,10.83,0,0,0,0,0,0-.27,3.95-.77,7.87-1.51,11.75-.78,3.97-1.81,7.87-3.08,11.71.02-.05.04-.1.05-.15-1.39,4.16-3.07,8.21-4.97,12.15.03-.05.05-.1.07-.15-1.93,3.98-4.1,7.83-6.54,11.53.03-.05.06-.1.09-.14-2.59,3.9-5.41,7.63-8.48,11.16-2.71,3.08-5.6,5.98-8.69,8.69-2.83,2.46-5.82,4.74-8.94,6.81.05-.03.1-.06.14-.09-2.83,1.86-5.76,3.55-8.8,5.03.05-.03.1-.05.15-.08-2.74,1.33-5.55,2.49-8.43,3.46.05-.02.1-.04.15-.05-2.55.84-5.16,1.51-7.79,2.03,0,0-.01,0-.01,0,0,0-.01,0-.02,0,0,0,0,0,.02,0-.02,0-.03,0-.04,0h.02s-.02,0-.03,0c-2.29.44-4.62.76-6.95.92,0,0,0,0,0,0h0s0,0-.01,0c-.04,0-.08,0-.13,0,.02,0,.04,0,.07,0-2.14.13-4.28.14-6.42,0-1.9-.13-3.79-.37-5.66-.72,0,0,0,0,0,0-.01,0-.03,0-.04,0-.03,0-.05,0-.08-.02,0,0,0,0,.01,0-1.77-.36-3.53-.81-5.25-1.37,0,0,.01,0,.02,0-1.78-.59-3.51-1.3-5.19-2.1-1.83-.9-3.6-1.9-5.29-3.03h.01c-1.39-.93-2.73-1.94-4-3.05-1.52-1.33-2.93-2.75-4.26-4.27-1.37-1.58-2.62-3.25-3.79-4.98h0s-.04-.07-.07-.11c0,0,0,0-.01-.02h0s0,0,0,0c0,0,0,0,0,0h0c-.09-.17-.22-.34-.32-.5-.14-.22-.27-.43-.41-.65-1-1.59-1.91-3.25-2.74-4.94.03.05.05.1.07.15-1.13-2.33-2.08-4.73-2.9-7.18.02.05.04.1.05.15-.9-2.71-1.62-5.47-2.17-8.27-.57-2.94-.96-5.92-1.16-8.91-.22-3.44-.19-6.89.03-10.32.26-3.74.74-7.45,1.45-11.13.79-4.02,1.82-7.99,3.1-11.88,0,0,0,.02,0,.04,1.37-4.1,3-8.08,4.88-11.97,0,0,0,0,0,0,0,0,0,0,0,0,0,0,0,0,0,0,0,0,0,0,0,0,0,0,0,0,0,0,1.91-3.91,4.1-7.68,6.49-11.32,2.46-3.72,5.15-7.27,8.07-10.64,2.85-3.25,5.91-6.31,9.16-9.17-.04.04-.09.08-.13.11.04-.04.09-.08.13-.12.24-.17.46-.39.67-.58.27-.23.54-.45.81-.68.53-.44,1.07-.88,1.6-1.31,2.03-1.63,4.13-3.18,6.3-4.61-.05.03-.1.06-.14.09,2.29-1.51,4.65-2.9,7.08-4.18-.25,0-.51.01-.76,0-1.02-.02-2.04-.09-3.06-.2-.28-.03-.57-.07-.85-.11-.68.4-1.36.81-2.04,1.23-2.28,1.43-4.48,2.97-6.62,4.62-1.12.86-2.22,1.75-3.3,2.66-.27.23-.54.46-.81.69-.19.16-.39.32-.57.5-.18.13-.35.3-.52.45-.56.5-1.12,1.01-1.67,1.52-1.16,1.07-2.28,2.17-3.39,3.3-2.29,2.33-4.46,4.8-6.51,7.35-3.64,4.53-6.89,9.4-9.72,14.47-3.14,5.62-5.7,11.55-7.71,17.66-1.99,6.11-3.37,12.43-4.1,18.82-.65,5.74-.79,11.58-.21,17.33.64,6.37,2.1,12.67,4.44,18.62,1.09,2.76,2.38,5.44,3.9,7.99.37.62.75,1.23,1.14,1.84.1.16.2.32.31.47.11.2.25.38.38.57.2.3.41.6.62.89,1.59,2.25,3.38,4.39,5.34,6.35,1.85,1.85,3.86,3.54,6.01,5.01Z"/>
  <g>
    <path class="cls-1" d="m294.86,122.74s-.03-.03-.04-.05c0,0,0,0,0,0,.01.02.03.03.04.05Z"/>
    <path class="cls-1" d="m297.27,116.02c-.2-1.23-.52-2.44-.88-3.63-.37-1.22-.81-2.43-1.32-3.61-2.06-4.78-5.2-9.01-8.59-12.92-3.4-3.92-7.2-7.47-11.34-10.6-4.15-3.12-8.59-5.82-13.2-8.21-4.79-2.48-9.78-4.59-14.83-6.48-2.57-.96-5.16-1.87-7.76-2.76-2.61-.89-5.22-1.76-7.8-2.72-1.53-.57-3.04-1.17-4.54-1.81,0,0,0,0,.01,0-3.23-1.38-6.39-2.93-9.41-4.72-1.1-.66-2.14-1.39-3.15-2.18-1.43-1.16-2.78-2.41-4.06-3.74-1.78-1.88-3.38-3.92-4.95-5.97-1.56-2.04-3.08-4.11-4.65-6.14-.74-.96-1.5-1.9-2.3-2.81-.79-.91-1.63-1.8-2.58-2.56-.86-.69-1.82-1.25-2.91-1.47-1.08-.23-2.18-.09-3.2.33-1.14.46-2.05,1.36-2.78,2.33-.73.97-1.23,2.09-1.63,3.23-.42,1.17-.68,2.41-.84,3.64-.18,1.36-.16,2.75-.13,4.11.05,2.42.29,4.83.78,7.21.49,2.39,1.21,4.74,2.05,7.04.49,1.35,1.11,2.65,1.69,3.96-1.17-1.06-2.4-2.06-3.77-2.81-.93-.51-1.92-.93-2.94-1.24-1.31-.39-2.7-.44-3.99.06-1.27.49-2.31,1.54-2.93,2.74-.62,1.21-.81,2.59-.83,3.94-.03,2.38.41,4.73,1.1,6.99.33,1.1.74,2.17,1.23,3.21.51,1.1,1.12,2.14,1.79,3.15.7,1.06,1.49,2.06,2.32,3.02.46.53.95,1.05,1.45,1.55.49.49,1,.96,1.52,1.42,1.97,1.71,4.18,3.11,6.54,4.22,4.65,2.19,9.72,3.44,14.79,4.19,4.97.74,9.99,1.16,15.02,1.43,5.04.27,10.08.41,15.12.74,1.34.09,2.67.18,4.01.29-.05,0-.11,0-.16-.01,5.06.42,10.11,1.02,15.09,2.04.64.13,1.28.27,1.91.41-.05,0-.11-.02-.16-.03,1.87.41,3.73.86,5.58,1.37,1.73.48,3.43,1.04,5.12,1.65,3,1.12,5.92,2.45,8.76,3.93,2.63,1.39,5.18,2.92,7.61,4.63,0,0-.02-.01-.03-.02.01.01.03.02.04.03,0,0,.02.01.03.02,0,0-.01,0-.02-.01,3.02,2.17,5.88,4.59,8.61,7.11,1.06.99,2.14,1.98,3.07,3.09-.01-.02-.02-.03-.04-.05.02.02.04.04.05.07,0,0,0,0,0,.01.19.24.37.48.67.62.52.25,1.08,0,1.43-.42.05-.04.12-.03.16-.08.03-.04.02-.09.05-.12,0-.01.02-.02.03-.03.01-.03,0-.05.01-.08.12-.2.25-.41.24-.64.02-.16.05-.33.07-.49,0,.05-.02.11-.02.16.27-1.87.12-3.74-.19-5.6Zm-9.76-3.41c-3.78-3-7.88-5.55-12.2-7.72-2.38-1.2-4.82-2.28-7.31-3.22-2.32-.87-4.68-1.61-7.07-2.24-2.55-.67-5.14-1.23-7.74-1.73-2.52-.48-5.06-.86-7.61-1.17-5.14-.63-10.31-.94-15.48-1.18-4.89-.23-9.78-.38-14.66-.76-.23-.01-.45-.03-.68-.05-2.2-.19-4.4-.4-6.58-.67-2.21-.28-4.42-.62-6.6-1.08-2.35-.52-4.65-1.15-6.92-1.96-1.49-.55-2.94-1.16-4.36-1.89-1.01-.55-1.99-1.16-2.93-1.81-.95-.68-1.84-1.43-2.69-2.23-.81-.78-1.58-1.6-2.31-2.47-.76-.92-1.46-1.89-2.1-2.89-.41-.67-.79-1.34-1.13-2.04,0,.02.02.03.02.05-.01-.02-.02-.05-.03-.07-.01-.03-.03-.05-.04-.08,0,.02.02.03.02.05-.4-.87-.74-1.75-1.04-2.65-.3-.99-.56-1.98-.76-3-.15-.86-.25-1.72-.3-2.58-.02-.54-.02-1.08.02-1.62.04-.38.09-.76.16-1.14.05-.18.1-.36.16-.54.07-.16.14-.32.22-.48.06-.11.13-.22.2-.33.12-.16.25-.32.38-.46.11-.12.23-.23.36-.33.08-.06.16-.11.24-.17.08-.05.17-.09.25-.13.12-.05.24-.1.36-.14.1-.03.2-.05.3-.07.12-.02.24-.03.35-.04.2,0,.39,0,.59.02.17.02.33.04.5.07.37.09.73.21,1.09.34.5.19.98.4,1.46.63.53.29,1.05.61,1.55.96-.02-.02-.04-.03-.06-.05.03.02.06.04.09.06.02.01.03.02.05.03-.01,0-.02-.01-.03-.02.92.67,1.79,1.4,2.63,2.18.82.78,1.61,1.6,2.4,2.42.81.84,1.61,1.68,2.41,2.52.22.35.42.71.65,1.05.05.07.1.14.17.2.41.41,1.07.52,1.58.19.57-.36.77-1.17.39-1.75-.19-.28-.35-.59-.53-.88-.04-.05-.02-.13-.06-.17-.03-.04-.07-.07-.1-.11-.4-.66-.82-1.31-1.19-1.99-1.41-2.61-2.65-5.33-3.73-8.1-.74-1.95-1.37-3.93-1.87-5.95-.35-1.47-.63-2.95-.8-4.45-.2-1.92-.26-3.84-.24-5.78.02-.62.07-1.25.15-1.87.12-.79.3-1.55.52-2.32.13-.44.28-.87.46-1.29.18-.42.37-.84.6-1.23.17-.26.34-.52.53-.76.15-.19.31-.37.48-.54.16-.14.32-.27.49-.4.13-.09.26-.18.4-.26.09-.04.18-.08.27-.12.15-.06.31-.11.46-.15.11-.02.23-.04.34-.06.08,0,.17-.01.26-.01.17,0,.35.02.52.04.09.02.18.04.27.06.13.04.26.08.38.13.2.09.4.19.58.3.21.13.41.27.6.42-.02-.01-.03-.03-.05-.04.02.02.04.03.06.05.03.02.05.04.08.06-.02-.02-.04-.03-.07-.05.5.41.96.85,1.42,1.32,1.68,1.77,3.16,3.73,4.63,5.67,1.6,2.12,3.18,4.24,4.83,6.32,1.71,2.15,3.52,4.22,5.55,6.08,1.07.98,2.19,1.92,3.37,2.78,1,.73,2.05,1.37,3.11,1.98,4.62,2.67,9.56,4.79,14.57,6.61,2.58.94,5.18,1.79,7.77,2.69,2.59.89,5.17,1.81,7.73,2.78,1.94.73,3.86,1.51,5.77,2.33,4.56,1.96,8.99,4.17,13.26,6.7,3.04,1.82,5.96,3.82,8.75,6.01,0,0,0,0-.01-.01.01.01.03.02.04.03.03.02.06.05.09.07-.01,0-.02-.02-.03-.03,2.5,2.01,4.86,4.17,7.09,6.48,2.14,2.25,4.16,4.62,6,7.12,1.17,1.62,2.26,3.29,3.22,5.04.63,1.18,1.2,2.38,1.7,3.63.53,1.39.98,2.8,1.34,4.24.07.31.1.63.17.95-.9-1.68-1.85-3.33-2.87-4.93-1.05-1.65-2.18-3.26-3.43-4.78-.34-.4-.67-.81-1.02-1.2-.17-.19-.34-.39-.51-.59-.07-.07-.13-.16-.21-.23-.03-.03-.06-.07-.09-.1-.08-.09-.16-.18-.24-.27-1.36-1.51-2.78-2.98-4.24-4.38-1.48-1.42-3.04-2.77-4.65-4.06-1.55-1.23-3.16-2.41-4.83-3.49-3.43-2.2-7.01-4.19-10.72-5.88-3.75-1.71-7.66-3.07-11.63-4.17-2.02-.56-4.05-1.05-6.11-1.48-1.93-.4-3.87-.74-5.8-1.07-4.05-.69-8.12-1.27-12.19-1.84-2.03-.29-4.05-.58-6.08-.87-1.97-.28-3.95-.56-5.92-.91.04,0,.07.01.1.02-.66-.12-1.33-.24-1.99-.38-.31-.07-.62-.13-.93-.2-.11-.03-.23-.05-.33-.08.02,0,.04.01.06.02-.38-.11-.79.05-.95.44-.15.37.03.85.43.98.27.09.56.14.84.2.53.12,1.06.23,1.6.32,1.05.2,2.1.38,3.15.54,2.05.32,4.1.6,6.15.89,1.99.29,3.98.57,5.98.85,4.01.57,8.02,1.18,12.02,1.89.32.05.64.11.95.17,1.95.36,3.89.76,5.82,1.23,2.09.52,4.16,1.11,6.22,1.76,3.21,1.03,6.35,2.27,9.39,3.72,3.27,1.58,6.45,3.38,9.49,5.36-.01,0-.02-.01-.03-.02,2.28,1.5,4.42,3.18,6.49,4.95,2.44,2.12,4.72,4.42,6.88,6.82.03.03.06.07.09.1.09.12.21.24.31.35.25.28.49.57.74.85,1.02,1.21,1.97,2.45,2.86,3.75,0,0-.01-.02-.02-.03.16.24.3.49.46.73-1.06-1.18-2.12-2.37-3.31-3.43-3.38-3.02-7.11-5.63-11-7.96-2.09-1.25-4.23-2.42-6.43-3.47-2.17-1.04-4.4-1.97-6.66-2.8-2.22-.82-4.48-1.53-6.75-2.18-2.25-.64-4.53-1.18-6.83-1.64-4.51-.89-9.08-1.4-13.65-1.76-4.52-.36-9.05-.64-13.56-1.04-4.41-.39-8.83-.82-13.2-1.58-2.94-.53-5.87-1.21-8.72-2.11-1.71-.56-3.37-1.24-5-2.01,0,0,.01,0,.02.01-.02-.01-.04-.02-.07-.03,0,0-.02,0-.02-.01,0,0,0,0,0,0-2.23-1.07-4.36-2.32-6.44-3.66-1.32-.87-2.58-1.79-3.78-2.82-.69-.61-1.35-1.25-1.96-1.93,0,0,.01.02.02.03-.09-.11-.18-.21-.27-.32-.27-.32-.74-.39-1.07-.13-.32.25-.39.75-.13,1.07.38.46.8.9,1.23,1.32,1.53,1.53,3.27,2.83,5.08,4.01,1.9,1.24,3.85,2.4,5.88,3.41,1.04.52,2.1,1.01,3.18,1.45,1.07.44,2.16.83,3.26,1.18,2.3.72,4.65,1.28,7.01,1.75,4.43.88,8.93,1.34,13.42,1.75,4.51.42,9.04.72,13.56,1.06,2.19.17,4.38.35,6.57.59,2.31.25,4.62.59,6.91.99,2.05.36,4.09.8,6.11,1.32,1.87.48,3.73,1.03,5.57,1.62,0,0,0,0,0,0,.01,0,.03,0,.04.01.01,0,.02,0,.03.01,0,0,0,0,0,0,3.24,1.05,6.42,2.3,9.49,3.75,0,0-.02,0-.03-.01.02.01.05.02.07.03,0,0,.01,0,.02.01,0,0,0,0,0,0,3.18,1.52,6.23,3.29,9.19,5.2,0,0-.02-.01-.03-.02,2.6,1.7,5.09,3.56,7.45,5.59,1.33,1.16,2.58,2.41,3.76,3.72,1.49,1.67,2.88,3.43,4.14,5.27,0,0-.01-.02-.02-.03.07.1.13.22.2.32-.13-.12-.27-.25-.4-.37-1.7-1.54-3.44-3.04-5.23-4.47Z"/>
    <path class="cls-1" d="m203.37,59.96c1.44,1.38,2.99,2.65,4.61,3.82.78.57,1.6,1.1,2.42,1.61.89.55,1.8,1.09,2.73,1.58,3.56,1.89,7.29,3.45,11.14,4.64.07.02.15.03.22.03.32,0,.63-.2.73-.52.13-.39-.09-.83-.49-.96-1.45-.44-2.89-.95-4.3-1.5-2.51-.99-4.96-2.13-7.33-3.43-1.53-.86-3.02-1.81-4.44-2.83-1.58-1.16-3.08-2.42-4.49-3.77-1.42-1.37-2.75-2.83-3.99-4.36-.78-.99-1.53-2-2.25-3.03-.71-1.03-1.41-2.06-2.05-3.13-.57-.97-1.15-1.95-1.6-2.97,0,0,0,0,0,0,0,0,0,0,0,.01,0,0,0-.01,0-.01-.01-.04-.03-.08-.05-.11-.02-.04-.04-.08-.06-.11-.19-.28-.57-.39-.87-.28-.31.11-.55.44-.51.77.02.17.09.31.16.46.08.17.16.35.25.52.21.42.44.84.67,1.25.47.85.97,1.7,1.51,2.52,1.14,1.75,2.35,3.47,3.66,5.1,1.34,1.67,2.8,3.24,4.34,4.72Z"/>
  </g>
  <path class="cls-1" d="m330.75,292.46c-5.76-1.58-11.26-4.21-16.12-7.7-4.93-3.53-9.29-7.87-12.91-12.73-3.69-4.95-6.65-10.38-8.94-16.1-2.47-6.15-4.25-12.56-5.34-19.09-.33-1.98-.6-3.97-.81-5.96,0,0,0,.02,0,.03-.69-6.67-.71-13.38-.17-20.06.55-6.75,1.67-13.43,3.38-19.98,1.55-5.91,3.59-11.68,6.07-17.27,2.32-5.24,5.06-10.3,8.19-15.1,2.89-4.45,6.15-8.66,9.72-12.58,3.81-4.19,7.95-8.08,12.43-11.54,1.36-1.05,2.75-2.06,4.17-3.03.05.2.17.38.35.51,0,.04,0,.08,0,.12.06.36.28.67.63.8.35.13.72.18,1.09.21-.96.64-1.9,1.31-2.83,1.98,0,0,0,0,0,0,0,0-.02.02-.03.02h0s-.01,0-.02,0c-3.05,2.24-5.95,4.68-8.7,7.27,0,0,.01,0,.02-.01-3.07,2.92-5.96,6.03-8.65,9.31.03-.04.07-.08.1-.12-2.66,3.26-5.11,6.7-7.35,10.27,0,0,0-.01.01-.02,0,.01-.01.02-.02.03-.02.04-.04.07-.07.11,0,0,.01-.02.02-.03-2.35,3.8-4.46,7.76-6.32,11.83-2,4.4-3.72,8.91-5.15,13.53.02-.05.03-.1.05-.16-1.48,4.82-2.63,9.73-3.46,14.7,0-.04.01-.08.02-.12-.83,5.09-1.31,10.24-1.48,15.38,0-.06,0-.11,0-.17-.13,4.57,0,9.15.48,13.71,0-.06-.01-.11-.02-.17.01.12.02.23.04.35.45,4.17,1.17,8.3,2.15,12.39,0-.02,0-.03,0-.05.91,3.7,2.05,7.34,3.42,10.9,0-.02-.02-.04-.03-.06.02.04.03.09.05.13,0,0,0,.01,0,.02h0c1.19,3.02,2.54,5.98,4.09,8.83,1.34,2.45,2.84,4.8,4.47,7.06,1.54,2.09,3.2,4.1,4.99,5.99-.04-.04-.07-.08-.11-.11,1.68,1.76,3.47,3.41,5.36,4.96,1.61,1.3,3.28,2.51,5.03,3.61,1.88,1.16,3.81,2.2,5.82,3.12h0s0,0,.01,0h0c1.84.83,3.73,1.54,5.65,2.15,0,0-.02,0-.03,0,.02,0,.04.01.06.02.04.01.07.02.1.03-.02,0-.05-.02-.08-.03,2.03.61,4.09,1.09,6.18,1.45,0,0,0,0-.02,0,2.12.34,4.26.55,6.41.63,2.18.06,4.37-.02,6.54-.23,2.46-.27,4.89-.7,7.29-1.27-.05.01-.11.03-.16.04,2.52-.61,5.01-1.38,7.43-2.31-.02,0-.05.02-.07.03,2.67-1.05,5.27-2.27,7.79-3.63-.02,0-.03.02-.05.03.04-.02.09-.05.12-.07.02-.01.05-.03.07-.03,0,0,.01,0,.02,0,.04-.03.07-.05.11-.07.5-.28,1-.56,1.51-.85,1.93-1.14,3.81-2.37,5.64-3.68,0,0-.02.01-.03.02.03-.02.06-.05.09-.07.01,0,.03-.02.03-.03t0,0c2.64-1.95,5.14-4.07,7.53-6.32,0,0,0,0,0,0,2.68-2.54,5.19-5.24,7.54-8.09h0c2.59-3.19,4.98-6.54,7.16-10.03h0s.02-.02.02-.03c.02-.02.03-.05.05-.07,0,0,0,0,0,0,2.44-3.95,4.62-8.04,6.55-12.26-.01.02-.02.05-.03.08,2.12-4.66,3.92-9.47,5.43-14.36,0,0,0,0,0,0,1.43-4.69,2.58-9.46,3.39-14.29,0,.06-.02.11-.03.17.74-4.45,1.16-8.94,1.32-13.44.15-5.1-.04-10.21-.56-15.28-.36-3.42-.85-6.83-1.55-10.2.95.57,1.9,1.14,2.86,1.69.02,0,.03.02.05.03.33,1.85.61,3.71.85,5.58.74,5.81,1.04,11.67.89,17.52-.08,3.08-.28,6.15-.62,9.21-.32,2.85-.78,5.69-1.33,8.51-1.22,6.17-3,12.22-5.18,18.11-2.2,5.94-4.88,11.72-8.05,17.2-3.11,5.38-6.66,10.5-10.71,15.21-2.23,2.6-4.63,5.05-7.15,7.38-2.51,2.32-5.15,4.48-7.94,6.45-1.3.91-2.63,1.79-3.99,2.61-.7.42-1.4.83-2.11,1.23-.15.08-.31.18-.46.26-.02,0-.04.02-.06.03,0,0-.01,0-.02.01-.21.14-.46.25-.68.37-.36.19-.72.38-1.09.57-1.45.74-2.92,1.43-4.41,2.07-5.79,2.5-12,4.07-18.29,4.6-.79.07-1.58.11-2.37.14-5.13.19-10.29-.42-15.23-1.78Z"/>
  <path class="cls-1" d="m338.47,285.79c-5.11-.78-10.07-2.36-14.65-4.78-4.6-2.43-8.75-5.65-12.36-9.39-1.91-1.97-3.64-4.1-5.26-6.32-1.7-2.33-3.23-4.78-4.61-7.31-2.79-5.16-4.87-10.72-6.36-16.4-1.54-5.87-2.4-11.9-2.7-17.96-.32-6.38.07-12.8.96-19.11.91-6.44,2.48-12.77,4.59-18.92,1.98-5.79,4.48-11.38,7.5-16.7,3.28-5.77,7.17-11.18,11.57-16.14,2.13-2.4,4.4-4.66,6.78-6.8,1.12-.99,2.26-1.96,3.43-2.9.58-.46,1.18-.93,1.78-1.38.28-.21.55-.41.83-.62.02-.01.04-.03.07-.05.01,0,.03-.02.04-.03.32-.23.64-.46.96-.69,1.12-.79,2.26-1.56,3.42-2.29,2.23-1.41,4.55-2.7,6.92-3.86.5-.24,1-.48,1.51-.7,0,0,.02,0,.03,0,.95.17,1.91.3,2.86.43.68.09,1.36.19,2.04.28-.39.14-.78.29-1.16.44.05-.02.11-.04.16-.06-2.49.97-4.9,2.12-7.24,3.4.05-.03.1-.05.14-.08-1.9,1.05-3.77,2.17-5.57,3.38-.48.32-.97.65-1.44.99-.26.18-.51.37-.77.55-.07.05-.15.11-.22.17,0,0,0,0,0,0-.03.02-.06.05-.09.07-.01,0-.02.02-.03.03-2.71,2-5.29,4.16-7.74,6.47.02-.02.05-.05.07-.07-2.62,2.49-5.06,5.16-7.35,7.95,0,0,0,0,0,0-2.49,3.07-4.8,6.28-6.89,9.63-2.13,3.44-4.04,7-5.72,10.67.02-.05.04-.1.07-.15-1.81,3.99-3.34,8.1-4.63,12.29.01-.05.03-.1.05-.16-1.3,4.23-2.33,8.53-3.06,12.89,0-.06.02-.11.03-.17-.76,4.62-1.23,9.27-1.38,13.95-.11,4.1.03,8.2.45,12.29.4,3.73,1.03,7.43,1.91,11.07-.01-.06-.03-.11-.04-.16.8,3.29,1.8,6.52,3.02,9.68-.02-.05-.04-.1-.06-.16,1.1,2.83,2.37,5.6,3.82,8.27-.03-.05-.05-.1-.08-.14,1.3,2.35,2.75,4.62,4.33,6.8,0,0,0,0,0,.01,0,0,0,0,.01.01,0,0,0,0-.01-.01.01.01.02.02.03.03,0,0,0,0-.01-.01,0,0,.01.02.02.03,1.38,1.88,2.87,3.7,4.47,5.41,0,0,0,0,0,0h0s0,0,0,0c.03.03.06.06.09.09-.01-.02-.03-.03-.05-.05,1.48,1.55,3.04,3.01,4.7,4.37,1.48,1.2,3.03,2.31,4.64,3.33,0,0,0,0,0,0,.01,0,.02.02.04.02.02.01.04.03.07.04,0,0,0,0-.01,0,1.54.95,3.13,1.81,4.78,2.58,0,0-.01,0-.02-.01,1.7.78,3.45,1.44,5.23,1.99,1.95.59,3.93,1.06,5.94,1.39,0,0-.01,0-.02,0,1.66.26,3.33.42,5.01.48,2.01.06,4.02-.02,6.03-.22,2.08-.23,4.13-.59,6.17-1.07h0s.08-.02.12-.03c0,0,.01,0,.02,0h0s0,0,0,0c0,0,0,0,0,0h0c.18-.06.39-.1.58-.14.25-.06.49-.13.74-.2,1.82-.49,3.61-1.08,5.37-1.75-.05.02-.1.04-.15.06,2.41-.94,4.74-2.05,7.01-3.29-.05.03-.1.05-.14.08,2.5-1.37,4.91-2.9,7.22-4.58,2.42-1.77,4.73-3.68,6.92-5.73,2.5-2.37,4.83-4.92,7.01-7.58,2.36-2.92,4.53-5.96,6.52-9.14,2.16-3.48,4.1-7.09,5.82-10.81,0,0-.01.02-.02.03,1.79-3.93,3.31-7.97,4.58-12.09,0,0,0,0,0,0,0,0,0,0,0,0,0,0,0,0,0,0,0,0,0,0,0,0,0,0,0,0,0,0,1.26-4.17,2.22-8.42,2.95-12.71.73-4.39,1.18-8.83,1.33-13.29.12-4.32-.03-8.65-.46-12.95,0,.06.01.11.02.17,0-.06-.01-.12-.02-.18-.06-.29-.07-.6-.1-.88-.04-.35-.08-.7-.13-1.05-.08-.69-.18-1.37-.28-2.05-.37-2.58-.86-5.14-1.47-7.66.01.05.03.11.04.16-.65-2.67-1.43-5.3-2.34-7.88.18.18.36.35.56.52.77.68,1.56,1.33,2.38,1.94.23.17.46.34.69.5.23.76.44,1.52.65,2.29.7,2.6,1.26,5.23,1.7,7.89.23,1.39.43,2.79.6,4.19.04.35.08.7.12,1.05.03.25.07.5.08.75.04.22.05.46.07.68.07.75.13,1.5.19,2.25.12,1.57.19,3.14.24,4.72.09,3.27,0,6.55-.24,9.82-.42,5.79-1.35,11.57-2.73,17.22-1.52,6.25-3.68,12.34-6.38,18.18-2.7,5.83-5.99,11.4-9.81,16.57-3.43,4.65-7.31,9.02-11.65,12.84-4.8,4.23-10.16,7.85-15.93,10.61-2.68,1.29-5.45,2.36-8.3,3.2-.69.2-1.39.39-2.09.57-.18.05-.36.1-.55.13-.22.07-.45.11-.67.16-.35.08-.71.16-1.06.23-2.7.56-5.46.92-8.23,1.02-2.61.1-5.23-.03-7.81-.43Z"/>
  <g>
    <path class="cls-1" d="m329.51,134.74s0,0,0,0c-.02,0-.04,0-.06,0,.02,0,.04,0,.06,0Z"/>
    <path class="cls-1" d="m466.79,141.31c-.46-1-1.18-1.85-2.12-2.42-.95-.58-2.04-.82-3.13-.9-1.21-.09-2.43-.01-3.63.12-1.2.12-2.4.3-3.6.49-2.53.41-5.05.9-7.59,1.33-2.55.43-5.11.84-7.69,1-1.84.1-3.68.1-5.52-.03-1.28-.11-2.54-.28-3.79-.54-3.43-.75-6.8-1.76-10.11-2.95,0,0,0,0,.01,0-1.53-.56-3.05-1.15-4.56-1.77-2.54-1.06-5.05-2.2-7.57-3.32-2.51-1.12-5.02-2.21-7.56-3.26-4.98-2.06-10.07-3.91-15.27-5.35-5-1.39-10.09-2.44-15.26-2.98-5.16-.53-10.36-.52-15.52.04-5.15.56-10.33,1.51-15.09,3.61-1.17.52-2.32,1.11-3.42,1.75-1.08.63-2.13,1.3-3.12,2.06-1.49,1.15-2.88,2.42-3.95,3.97.03-.04.06-.09.09-.13-.09.14-.19.27-.28.41-.16.16-.21.4-.26.63-.01.03-.04.04-.05.07,0,.01,0,.03,0,.04,0,.05-.05.07-.05.12,0,.15.03.29.08.43.07.45.29.87.75,1.02.32.1.6.05.91,0,0,0,.01,0,.02,0,.03,0,.06,0,.08-.01-.02,0-.04,0-.06,0,1.43-.18,2.88-.17,4.32-.17,3.73,0,7.48.18,11.18.65,0,0-.02,0-.02,0,.01,0,.02,0,.03,0,.02,0,.03,0,.05,0-.01,0-.02,0-.03,0,2.95.4,5.86,1.02,8.73,1.79,3.09.85,6.13,1.86,9.09,3.09,1.65.7,3.28,1.45,4.87,2.27,1.7.88,3.37,1.82,5.02,2.79-.05-.03-.1-.06-.14-.09.56.33,1.12.67,1.68,1,4.34,2.64,8.45,5.64,12.44,8.78-.04-.03-.09-.07-.13-.1,1.05.83,2.1,1.67,3.14,2.52,3.91,3.19,7.7,6.52,11.57,9.75,3.86,3.22,7.82,6.34,11.97,9.18,4.23,2.89,8.79,5.43,13.69,7,2.48.79,5.06,1.27,7.66,1.36.69.02,1.39.02,2.08,0,.71-.03,1.41-.08,2.11-.15,1.26-.13,2.52-.33,3.75-.63,1.18-.28,2.34-.63,3.46-1.09,1.06-.43,2.1-.94,3.09-1.52,2.04-1.2,3.97-2.61,5.57-4.38.91-1,1.7-2.14,2.07-3.45.37-1.3.32-2.78-.28-4-.61-1.24-1.65-2.15-2.88-2.76-.95-.47-1.96-.84-2.99-1.09-1.52-.38-3.1-.48-4.68-.51,1.32-.56,2.66-1.1,3.94-1.75,2.18-1.11,4.3-2.34,6.29-3.76,1.97-1.41,3.79-3.01,5.48-4.75.95-.98,1.91-1.99,2.7-3.1.72-1.01,1.37-2.1,1.86-3.24.47-1.11.88-2.27,1-3.47.13-1.2.07-2.48-.45-3.59Zm-2.04,3.07c-.03.31-.07.61-.13.92-.1.45-.25.88-.4,1.31-.16.43-.34.85-.54,1.26-.37.71-.75,1.39-1.2,2.05-.37.51-.76,1-1.17,1.47-1.31,1.44-2.66,2.81-4.13,4.09-1.14.97-2.34,1.87-3.59,2.7-1.74,1.14-3.55,2.17-5.42,3.09-2.67,1.3-5.43,2.44-8.24,3.4-.73.24-1.48.44-2.23.65-.05,0-.1,0-.15,0-.07,0-.1.07-.16.08-.33.09-.66.21-.99.29-.67.16-1.08.89-.9,1.55.16.59.71.96,1.29.94.09,0,.17-.01.26-.03.4-.1.8-.22,1.19-.33,1.16-.07,2.32-.15,3.48-.21,1.13-.06,2.27-.13,3.4-.14,1.14,0,2.27.06,3.41.2-.01,0-.02,0-.04,0,.02,0,.04,0,.06,0,.04,0,.07,0,.11.01-.03,0-.05,0-.08,0,.6.09,1.2.2,1.78.35.51.15,1.01.33,1.5.53.35.15.69.31,1.03.49.14.09.28.18.41.29.15.12.3.25.44.38.08.09.16.18.23.27.06.08.11.17.17.26.06.12.12.23.17.35.03.09.07.18.1.27.02.1.04.19.06.29.02.16.03.32.03.49,0,.2-.01.4-.04.6-.02.13-.05.25-.08.38-.05.17-.11.34-.17.5-.08.17-.16.34-.25.5-.2.33-.43.64-.66.95-.34.42-.71.81-1.09,1.2-.63.6-1.29,1.16-1.98,1.69-.83.61-1.71,1.16-2.6,1.68-.83.46-1.68.87-2.56,1.23.02,0,.03-.01.05-.02-.03.01-.05.02-.08.03-.02,0-.05.02-.07.03.02,0,.03-.01.05-.02-.73.28-1.47.52-2.22.73-1.15.3-2.33.52-3.51.69-1.12.14-2.25.22-3.37.24-1.17,0-2.33-.06-3.49-.2-1.14-.16-2.27-.38-3.38-.67-1.53-.43-3.01-.97-4.47-1.58-2.21-.95-4.33-2.05-6.4-3.27-1.91-1.14-3.76-2.4-5.57-3.7-1.79-1.29-3.54-2.63-5.28-3.99,0,0,0,0,0,0-.18-.14-.36-.28-.53-.42-3.83-3.04-7.52-6.27-11.26-9.42-3.95-3.34-7.95-6.64-12.14-9.67-2.07-1.51-4.19-2.96-6.37-4.33-2.24-1.4-4.51-2.76-6.84-4-2.18-1.16-4.41-2.23-6.7-3.17-2.47-1.01-4.99-1.87-7.55-2.62-4.64-1.34-9.38-2.28-14.19-2.65-2.29-.18-4.58-.27-6.88-.29-.06,0-.12,0-.19,0,.07-.02.14-.04.2-.05-.01,0-.02,0-.03,0,2.18-.49,4.4-.83,6.63-1.04,1.76-.16,3.52-.22,5.29-.17,3.11.12,6.2.45,9.26.98-.01,0-.02,0-.03,0,3.47.61,6.9,1.4,10.27,2.44,0,0,0,0,0,0,0,0,.01,0,.02,0,.02,0,.05.02.07.02-.01,0-.02,0-.03,0,3.24,1.03,6.42,2.28,9.51,3.72,0,0,0,0,0,0,.01,0,.02,0,.03.01.01,0,.02.01.04.02,0,0,0,0,0,0,1.75.83,3.49,1.68,5.18,2.61,1.84,1,3.63,2.06,5.38,3.19,1.95,1.26,3.87,2.59,5.73,3.97,1.76,1.31,3.49,2.67,5.21,4.04,3.55,2.83,7.06,5.69,10.65,8.46,3.57,2.76,7.18,5.48,11.02,7.85,2.05,1.26,4.15,2.46,6.33,3.49,1.05.5,2.1.96,3.19,1.36,1.09.41,2.2.77,3.32,1.1,2.18.65,4.39,1.12,6.63,1.51,2.13.37,4.29.59,6.45.52.6-.02,1.2-.05,1.8-.13.41-.05.7-.47.63-.87-.07-.42-.46-.69-.87-.63-.14.02-.28.03-.42.05.01,0,.02,0,.03,0-.92.08-1.83.11-2.76.08-1.58-.07-3.14-.25-4.69-.51-2.44-.43-4.84-.97-7.21-1.71,0,0,0,0,0,0,0,0-.02,0-.02,0-.02,0-.05-.01-.07-.02,0,0,.01,0,.02,0-1.72-.55-3.4-1.18-5.03-1.94-2.7-1.29-5.3-2.78-7.82-4.39-3.72-2.42-7.25-5.11-10.74-7.83-3.58-2.78-7.09-5.66-10.65-8.47-3.6-2.85-7.3-5.59-11.2-8-1.99-1.23-4.03-2.39-6.12-3.45-2.11-1.07-4.25-2.09-6.43-3-2.22-.93-4.48-1.76-6.78-2.48-2.33-.73-4.69-1.33-7.07-1.84-4.43-.94-8.94-1.57-13.48-1.66-1.68-.03-3.36.07-5.03.24.3-.07.6-.17.91-.24-.01,0-.02,0-.03,0,1.54-.34,3.08-.61,4.65-.8.37-.04.75-.08,1.12-.12.15-.01.32-.02.47-.04.04,0,.09,0,.13-.01,3.22-.29,6.45-.42,9.69-.31,2.72.11,5.44.34,8.13.79-.01,0-.03,0-.04,0,3.58.62,7.13,1.47,10.6,2.54,3.22,1.02,6.36,2.24,9.42,3.67,1.95.93,3.87,1.9,5.76,2.95,1.73.97,3.43,1.99,5.1,3.06.27.17.54.34.81.52,3.41,2.2,6.76,4.49,10.09,6.8,1.65,1.15,3.31,2.3,4.96,3.45,1.7,1.18,3.39,2.38,5.11,3.53.88.59,1.78,1.18,2.68,1.75.46.29.92.58,1.39.85.25.15.49.31.75.42.38.17.84-.06.98-.43.15-.39-.04-.79-.4-.97.02,0,.04.02.06.02-.1-.05-.2-.11-.3-.17-.27-.16-.55-.32-.82-.49-.58-.35-1.15-.71-1.71-1.07.03.02.05.03.09.05-1.68-1.08-3.31-2.23-4.95-3.36-1.68-1.17-3.36-2.34-5.04-3.5-3.37-2.35-6.75-4.7-10.19-6.95-1.65-1.08-3.3-2.15-4.98-3.17-1.79-1.09-3.62-2.11-5.48-3.07-3.66-1.89-7.45-3.56-11.36-4.86-3.87-1.29-7.85-2.27-11.86-2.99-1.96-.35-3.93-.58-5.91-.73-2.05-.16-4.11-.23-6.17-.2-2.03.03-4.07.14-6.09.32-.12.01-.24.02-.36.04-.04,0-.09,0-.13.01-.1,0-.21.02-.31.03-.26.02-.52.05-.78.08-.52.06-1.04.12-1.56.19-1.94.26-3.86.67-5.76,1.16-1.84.48-3.66,1.04-5.46,1.66.26-.19.5-.4.77-.58,1.24-.81,2.54-1.54,3.87-2.19,1.21-.58,2.45-1.07,3.71-1.5,1.9-.63,3.83-1.11,5.79-1.5,3.05-.57,6.14-.93,9.24-1.13,3.2-.18,6.4-.15,9.6.08-.01,0-.03,0-.04,0,.04,0,.08,0,.12,0,.02,0,.04,0,.05,0,0,0-.01,0-.02,0,3.53.29,7.04.82,10.5,1.56,4.85,1.06,9.6,2.46,14.28,4.13,1.95.7,3.89,1.44,5.8,2.22,2.54,1.04,5.05,2.12,7.56,3.23,2.5,1.11,4.99,2.25,7.52,3.32,4.91,2.07,9.97,3.88,15.17,5.08,1.2.27,2.4.52,3.63.67,1.45.17,2.91.25,4.36.26,2.75.01,5.49-.26,8.2-.68,2.62-.4,5.23-.88,7.84-1.34,2.4-.42,4.81-.84,7.25-1,.64-.03,1.28-.04,1.93,0-.03,0-.06,0-.08,0,.03,0,.06,0,.1,0,.02,0,.05,0,.07,0-.02,0-.04,0-.06,0,.25.02.49.05.73.1.21.05.43.11.64.18.12.05.24.1.37.16.08.04.16.09.24.14.14.1.28.21.41.32.06.06.12.12.18.18.07.09.14.18.21.27.09.14.17.28.24.42.04.09.08.18.11.28.05.15.08.31.12.47.04.21.07.42.08.63,0,.24,0,.48-.02.72Z"/>
    <path class="cls-1" d="m456.19,146.29s-.08.03-.12.04c-.04.01-.07.03-.11.05,0,0,0,0-.01,0,0,0,0,0,.01,0,0,0,0,0,0,0-1.03.44-2.12.77-3.2,1.09-1.2.34-2.41.63-3.63.89-1.23.26-2.46.49-3.7.69-1.95.28-3.93.44-5.9.48-1.96.03-3.91-.07-5.86-.3-1.74-.22-3.47-.54-5.18-.95-2.62-.66-5.19-1.5-7.7-2.48-1.41-.56-2.81-1.16-4.17-1.83-.37-.18-.84,0-1.01.37-.15.31-.06.66.18.88.05.05.12.09.19.13,3.63,1.75,7.43,3.15,11.32,4.19,1.02.27,2.05.5,3.07.7.95.18,1.91.35,2.87.47,1.98.25,3.98.37,5.98.34,2.13-.03,4.27-.19,6.39-.5,2.07-.3,4.12-.74,6.15-1.24.95-.23,1.89-.51,2.82-.82.45-.14.9-.3,1.34-.46.18-.07.36-.14.53-.21.16-.06.3-.12.43-.23.26-.22.3-.62.15-.91-.15-.29-.5-.47-.83-.39Z"/>
  </g>
  <g>
    <path class="cls-1" d="m235.88,151.48c-6.36-3.15-15.8,2.95-21.08,13.63-4.63,9.36-4.53,19.13-.15,23.52.62.62,1.31,1.12,2.1,1.51,6.36,3.15,15.8-2.95,21.08-13.63,5.29-10.67,4.41-21.88-1.95-25.03Z"/>
    <path class="cls-1" d="m228.67,155.22c1.35,1.08.95,3.85-.91,6.18-1.35,1.7-3.1,2.69-4.48,2.69-.51,0-.97-.14-1.34-.43-1.35-1.08-.95-3.85.91-6.18s4.47-3.34,5.82-2.26Z"/>
  </g>
  <g>
    <path class="cls-1" d="m353.07,195.95c6.8,2.02,9.56,12.92,6.16,24.34-2.98,10.01-9.71,17.09-15.9,17.32-.87.03-1.73-.07-2.57-.32-6.8-2.02-9.56-12.92-6.16-24.34,3.4-11.42,11.67-19.03,18.47-17Z"/>
    <path class="cls-1" d="m347.18,201.52c1.35,1.08.95,3.85-.91,6.18-1.35,1.7-3.1,2.69-4.48,2.69-.51,0-.97-.14-1.34-.43-1.35-1.08-.95-3.85.91-6.18,1.86-2.33,4.47-3.34,5.82-2.26Z"/>
  </g>
  <g>
    <path class="cls-1" d="m302.47,201.95c.14,1.28.11,2.59-.08,3.86-.19,1.29-.55,2.55-1.04,3.75-.51,1.28-1.16,2.49-1.96,3.62-.65.92-1.37,1.8-2.12,2.62-1.66,1.81-3.48,3.44-5.39,4.97-.95.76-1.99,1.43-3.04,2.03-1.01.58-2.05,1.1-3.12,1.59-2.08.95-4.24,1.7-6.46,2.23-.88.21-1.76.4-2.66.51-.43.05-.89.12-1.33.02-.08.01-.16.02-.24.01-.14,0-.27-.04-.4-.1-.48-.2-.83-.64-1.15-1.02-.58-.69-1.1-1.44-1.59-2.2-1.26-1.9-2.32-3.93-3.19-6.04-.45-1.08-.84-2.18-1.19-3.29-.36-1.16-.65-2.35-.83-3.56-.35-2.43-.56-4.86-.53-7.32.01-1.12.09-2.25.24-3.36.19-1.37.54-2.69,1.04-3.98.47-1.22,1.06-2.38,1.81-3.45.74-1.06,1.61-2.03,2.58-2.87.89-.76,1.85-1.43,2.87-2,1-.55,2.07-.93,3.18-1.19,2.09-.48,4.23-.5,6.35-.21,1.67.24,3.3.65,4.87,1.24.15,0,.31.02.46.07,2.2.73,4.29,1.77,6.18,3.11,1.74,1.23,3.3,2.71,4.49,4.49.64.95,1.16,1.95,1.51,3.04.36,1.12.59,2.26.72,3.42Z"/>
    <path class="cls-1" d="m272.59,216.74c-.76-1.9-1.48-3.82-2.05-5.79-.51-1.8-.86-3.68-.89-5.55-.03-1.71.25-3.43.7-5.08.25-.9.58-1.78.98-2.63.38-.8.87-1.54,1.42-2.23.58-.72,1.21-1.43,1.92-2.02.68-.56,1.4-1.06,2.16-1.5,1.48-.86,3.12-1.44,4.81-1.7.95-.15,1.93-.19,2.88,0,.41.09.66.51.57.91-.09.41-.51.66-.91.57-.06-.01-.12-.02-.18-.04-.19-.03-.39-.05-.58-.06-.33,0-.66,0-.98.03.03,0,.06,0,.1-.01-.52.05-1.04.14-1.55.25.02,0,.04,0,.05-.01-.54.13-1.06.29-1.58.48-.48.19-.95.4-1.41.64-.52.28-1.02.59-1.5.92,0,0,.01,0,.02-.01-.01,0-.02.02-.04.03,0,0-.01,0-.02.01,0,0,0,0,.01,0-.37.27-.74.55-1.09.85,0,0,.01-.01.02-.02,0,0-.01.01-.02.02-.02.02-.04.03-.05.05.01,0,.02-.02.03-.03-.44.42-.85.86-1.24,1.32,0,0,0,0,0,0-.35.42-.67.85-.96,1.31,0,0,0,0,0-.01,0,0,0,0,0,.01-.02.02-.03.05-.05.07.01-.02.03-.04.04-.06-.2.34-.39.69-.56,1.04-.3.68-.55,1.37-.77,2.07-.21.72-.37,1.44-.49,2.18-.11.67-.18,1.33-.2,2,0,0,0,0,0,0-.01.64.02,1.28.08,1.91,0-.03,0-.06-.01-.09.1.93.25,1.86.45,2.77,0-.03-.02-.06-.02-.1.39,1.66.94,3.28,1.54,4.87-.01-.03-.02-.06-.04-.09.26.7.53,1.39.81,2.08.15.38,0,.83-.38,1-.1.04-.2.06-.31.06-.29,0-.58-.16-.7-.45Z"/>
    <path class="cls-1" d="m275.23,222.13c-.15-.28-.3-.56-.44-.85-.14-.28-.34-.68-.25-1.01.11-.4.49-.67.91-.57.3.07.56.35.59.66,0,0,0,0,0-.01h0s0,.01,0,.01c0,0,0,0,0,0,0,.02.01.03.02.05,0-.02,0-.03-.01-.05.09.23.2.44.31.65-.02-.03-.03-.06-.04-.09.07.13.14.27.22.41.2.36.11.82-.25,1.04-.12.07-.26.11-.39.11-.26,0-.52-.13-.65-.36Z"/>
  </g>
  <g>
    <path class="cls-1" d="m232.34,67.49s.05.02.07.03c0,0-.01,0-.02,0,.53.23,1.06.45,1.59.68.8.31,1.6.62,2.39.95,1.19-.26,2.39-.51,3.6-.72,3.02-.55,6.05-1.01,9.09-1.38,2.84-.32,5.68-.61,8.53-.76,2.91-.15,5.82-.18,8.73-.15,0,0-.02,0-.02,0,1.55.03,3.11.07,4.66.12,7.89.26,15.77.92,23.58,2.07.77.12,1.54.23,2.31.36,7.78,1.26,15.49,2.88,23.06,5.07-.06-.02-.11-.04-.17-.05.56.17,1.12.33,1.68.5,3.85,1.16,7.67,2.44,11.44,3.84,3.69,1.37,7.32,2.86,10.93,4.44h0c1.38.61,2.75,1.23,4.11,1.87,3.61,1.69,7.18,3.45,10.7,5.33,3.54,1.89,7.02,3.89,10.44,5.98-.01,0-.02-.02-.03-.02,3.34,2.07,6.61,4.23,9.8,6.53,3.1,2.22,6.12,4.54,9.1,6.94h0s.04.04.07.05c0,0,.02.01.02.02,0,0,0,0-.01-.01,5.64,4.6,11.05,9.45,16.1,14.69,3.7,3.89,7.2,7.95,10.37,12.27.04.06.09.12.13.19.23.1.46.21.69.32,1.35.66,2.69,1.33,4.02,2.03-.06-.09-.12-.18-.18-.27-2.15-3.19-4.44-6.28-6.9-9.23-2.48-2.97-5.08-5.83-7.8-8.59-5.54-5.63-11.54-10.81-17.75-15.68-3.03-2.38-6.14-4.67-9.32-6.85-3.33-2.28-6.75-4.43-10.23-6.49-6.86-4.06-14-7.66-21.26-10.92-7.24-3.26-14.68-6.11-22.27-8.42-3.75-1.14-7.53-2.2-11.35-3.09-3.91-.91-7.84-1.7-11.79-2.4-3.9-.69-7.82-1.29-11.76-1.74-3.91-.44-7.83-.76-11.75-.99-3.8-.22-7.61-.36-11.42-.4-4.01-.04-8.02.08-12.02.45-3.96.37-7.9.86-11.82,1.52-1.92.33-3.84.68-5.75,1.09-1.2.26-2.39.55-3.58.84,0,0,0,0,.01,0,0,0,0,0,0,0Z"/>
    <path class="cls-1" d="m127.32,191.67s0,0,0,0c0,0-.01,0-.02,0,0,0,.01,0,.02,0Z"/>
    <path class="cls-1" d="m433.16,254.16c-.44-2.48-1.07-4.92-1.68-7.37-1.16-4.58-2.34-9.16-3.29-13.79-.35-1.73-.67-3.48-.95-5.23-.79-4.95-1.27-9.93-1.61-14.93-.11-1.79-.19-3.58-.26-5.37-.18-4.96-.18-9.93-.02-14.89.12-3.99.34-7.97.6-11.95-.48-.14-.95-.3-1.41-.5-.36-.16-.72-.33-1.06-.51-.33,4.91-.59,9.82-.71,14.75-.13,5.02-.08,10.06.15,15.08.23,5.14.64,10.28,1.33,15.38.65,4.79,1.59,9.53,2.69,14.23.55,2.35,1.15,4.69,1.74,7.02.6,2.35,1.22,4.69,1.71,7.06,0-.02,0-.04-.01-.06,0,.05.02.1.03.15,0,0,0,.01,0,.02h0c.35,1.76.63,3.55.76,5.35,0,.01,0,.02,0,.04,0,.02,0,.04,0,.07,0,0,0-.01,0-.02.04.82.05,1.63,0,2.45-.05.59-.13,1.18-.24,1.77-.09.42-.2.84-.34,1.25-.09.25-.2.5-.31.74-.11.22-.24.43-.37.64-.12.17-.25.35-.39.51-.12.13-.25.27-.39.39-.13.11-.27.21-.4.31-.13.08-.26.16-.39.22-.13.06-.26.11-.39.16-.22.07-.43.13-.65.18-.18.03-.36.06-.54.07-.17,0-.35,0-.52,0-.28-.02-.55-.06-.82-.11-.39-.09-.77-.19-1.15-.32-.4-.14-.79-.31-1.17-.5-.41-.21-.8-.45-1.19-.7-.52-.36-1.03-.75-1.51-1.16-.02-.02-.05-.04-.07-.06.02.02.05.04.07.06-.1-.09-.2-.18-.31-.28-.51-.47-1.29-.5-1.79,0-.27.27-.35.64-.31,1.01,0,.17.02.35.1.52.08.2.21.37.33.54.57.86,1.08,1.76,1.55,2.67.58,1.16,1.11,2.35,1.54,3.59.46,1.35.84,2.71,1.12,4.11.24,1.26.39,2.53.48,3.81.09,1.63.08,3.29-.03,4.92-.09,1.11-.25,2.21-.47,3.3-.23,1.09-.53,2.16-.89,3.23-.34.98-.73,1.94-1.18,2.87-.39.77-.8,1.51-1.27,2.23-.37.54-.76,1.06-1.19,1.56-.24.27-.49.52-.76.76-.28.24-.56.47-.86.68-.24.16-.48.3-.73.43-.17.08-.35.15-.53.22-.21.07-.42.13-.63.18-.22.04-.43.06-.65.08-.33.01-.65,0-.97-.02-.27-.02-.55-.06-.82-.1-.27-.06-.53-.14-.79-.22-.28-.1-.55-.21-.81-.33-.38-.19-.75-.4-1.1-.64-.34-.23-.67-.48-.98-.75.01.01.02.02.04.03-.02-.02-.03-.03-.05-.05-.02-.02-.05-.04-.07-.06.02.02.04.03.06.05-.43-.38-.84-.79-1.23-1.22-.51-.59-.99-1.2-1.43-1.84-.43-.64-.84-1.3-1.21-1.97-.33-.61-1.15-.79-1.73-.45-.23.14-.34.37-.44.59,0,0,0,0,0,0-1.15,1.17-2.36,2.28-3.6,3.35-2.28,1.95-4.67,3.78-7.17,5.43-2.51,1.64-5.12,3.11-7.8,4.43-3,1.44-6.1,2.67-9.26,3.73-.93.31-1.88.55-2.83.83-.02-.08-.03-.16-.05-.24-.06.02-.13.04-.19.06-.57.17-1.15.33-1.73.48-.17.04-.34.08-.52.11.02.1.03.2.05.3-1.79.46-3.6.86-5.41,1.22.03,0,.05-.01.08-.02-4.66.88-9.39,1.45-14.13,1.71-.15,0-.3.02-.45.02.02,0,.04,0,.07,0-2.19.11-4.39.19-6.59.16-2.15-.03-4.3-.14-6.45-.31.06,0,.12.01.17.02-.91-.08-1.83-.17-2.75-.26-5.27-.57-10.53-1.38-15.72-2.49-3.86-.86-7.68-1.91-11.41-3.24.01,0,.03.01.04.02-.05-.02-.09-.03-.14-.05,0,0-.01,0-.02,0,0,0,0,0,.01,0-.94-.35-1.87-.7-2.79-1.09-.73-.3-1.46-.6-2.16-.96-.61-.31-1.4.05-1.67.65-.29.66.04,1.36.65,1.67.9.46,1.85.84,2.79,1.22,2.34.94,4.72,1.76,7.14,2.46,2.55.75,5.12,1.41,7.72,1.96,5.18,1.09,10.43,1.89,15.69,2.43,2.59.26,5.19.44,7.8.51,1.81.05,3.61.02,5.42-.04.82-.03,1.64-.07,2.46-.11-.03,0-.06,0-.08,0,.1,0,.21-.01.31-.02,5.37-.29,10.73-.95,16-2.05,1.29-.27,2.55-.64,3.83-.97.1.56.22,1.12.3,1.68.24,1.77.41,3.57.43,5.37,0,.04,0,.08,0,.12,0,1.01-.06,2.01-.19,3.01-.1.69-.23,1.37-.4,2.05,0-.03.02-.05.02-.08-.01.04-.02.07-.03.11,0,0,0,.02,0,.03,0,0,0,0,0,0,0,0,0,0,0,0,0,0,0,.02,0,.03,0,0,0-.01,0-.01-.16.56-.34,1.11-.56,1.65-.19.45-.4.9-.64,1.33-.21.34-.42.66-.66.97-.16.19-.32.38-.49.55.01-.01.03-.03.04-.04-.02.02-.03.03-.05.05,0,0-.02.02-.02.03,0,0,.01-.02.02-.02-.26.25-.53.49-.81.72-.22.16-.45.32-.68.47-.22.13-.45.25-.68.35-.27.1-.53.19-.8.27-.25.06-.49.11-.74.15-.34.04-.68.06-1.02.07h-.08c-.47,0-.93-.04-1.4-.09-.53-.08-1.06-.18-1.58-.31-.56-.15-1.1-.34-1.64-.55-.69-.3-1.36-.65-2.01-1.02-.81-.49-1.59-1.04-2.35-1.62-.89-.7-1.73-1.44-2.53-2.23-.92-.92-1.77-1.9-2.57-2.93-.01-.02-.03-.04-.04-.05,0,0,0,0,0,0,0-.01-.02-.02-.03-.04,0,0-.02-.02-.03-.03-.01-.02-.03-.03-.04-.05,0,0,0,0-.01-.01-.05-.07-.1-.14-.16-.21-.41-.55-1.17-.74-1.76-.34-.55.38-.75,1.21-.34,1.76.12.15.23.3.35.46-.03-.04-.07-.09-.1-.13,1.25,1.61,2.6,3.15,4.13,4.49,1.77,1.56,3.7,2.95,5.83,3.98,1.96.95,4.13,1.43,6.31,1.44,1.01,0,1.99-.13,2.96-.46.19-.06.35-.17.54-.24-.02.39-.02.78-.05,1.18-.18,2.46-.53,4.9-1,7.32,0-.02,0-.04,0-.06-.62,3.01-1.43,5.97-2.43,8.87-1.08,3.08-2.34,6.09-3.8,9.01.01-.02.02-.05.03-.07-1.43,2.84-3.02,5.59-4.8,8.23-2.28,3.36-4.77,6.57-7.44,9.61-2.35,2.66-4.85,5.19-7.51,7.55-2.69,2.35-5.53,4.53-8.49,6.54-4.15,2.79-8.48,5.33-12.95,7.59,0,0,.01,0,.02-.01-4.19,2.1-8.49,3.93-12.91,5.48,0,0,0,0,0,0-.01,0-.02,0-.03.01-.04.01-.08.03-.12.04,0,0,0,0,0,0-4.88,1.68-9.87,3.04-14.93,4.08-5.49,1.11-11.04,1.86-16.63,2.25-5.5.36-11.02.36-16.52,0-5.56-.39-11.08-1.12-16.54-2.23-5.38-1.11-10.68-2.57-15.87-4.36-4.7-1.64-9.29-3.58-13.74-5.81,0,0,.01,0,.02.01-4-2.03-7.87-4.28-11.6-6.79-3.19-2.16-6.25-4.51-9.14-7.04,0,0,.01,0,.02.01-1.44-1.27-2.84-2.59-4.19-3.95-1.4-1.41-2.75-2.88-4.06-4.38.01.02.02.03.03.04-1.15-1.31-2.28-2.63-3.34-4.02-.99-1.3-1.96-2.62-2.88-3.97-.01-.01-.02-.02-.03-.04,0,0,0,0,0,0,0-.01-.02-.02-.02-.04,0,.01.02.02.02.03-1.49-2.22-2.82-4.56-4.03-6.95-1.49-2.99-2.8-6.06-3.91-9.21-.57-1.66-1.1-3.34-1.58-5.03-.46-1.64-.84-3.3-1.18-4.97-.33-1.62-.63-3.25-.85-4.88-.23-1.78-.39-3.58-.51-5.37-.17-2.7-.2-5.4-.12-8.1.67.19,1.35.32,2.04.32.32,0,.65-.02.97-.07,2.56-.35,4.85-1.91,6.68-3.66,1.99-1.9,3.64-4.17,5.13-6.47.38-.58.22-1.37-.36-1.76-.57-.38-1.38-.22-1.76.36-.61.93-1.25,1.85-1.92,2.75-.8,1.05-1.65,2.08-2.57,3.03-.45.44-.91.86-1.41,1.25-.41.32-.83.62-1.27.89-.41.23-.83.45-1.26.65-.21.09-.42.17-.64.24-.3.08-.6.15-.9.21-.19.02-.38.04-.57.05-.25,0-.49,0-.74-.03-.23-.03-.46-.09-.69-.14-.23-.06-.45-.12-.67-.21-.2-.08-.39-.18-.58-.28-.22-.13-.43-.27-.63-.41-.13-.11-.26-.22-.38-.33-.19-.19-.36-.39-.53-.6-.19-.25-.36-.52-.53-.79-.22-.38-.41-.77-.59-1.17-.23-.54-.42-1.1-.59-1.67-.24-.87-.44-1.76-.58-2.66-.21-1.41-.3-2.83-.34-4.25v-.04s0-.07,0-.1c0,.01,0,.02,0,.03-.05-2.9.09-5.81.41-8.7,0,0,0,0,0,0,.34-2.89.84-5.77,1.54-8.59,0,0,0,.02,0,.02.86-3.32,1.94-6.58,3.2-9.76,1.81-4.48,3.91-8.86,6.28-13.05.97-1.69,1.96-3.37,2.98-5.03,1.24-1.99,2.52-3.95,3.83-5.9,1.15.74,2.28,1.51,3.46,2.21,2.27,1.37,4.61,2.64,6.99,3.82,2.25,1.13,4.56,2.15,6.91,3.06.94.37,1.9.74,2.87,1.01.66.19,1.38-.1,1.61-.77.22-.62-.11-1.42-.78-1.61-.76-.22-1.5-.5-2.24-.77-.94-.35-1.86-.72-2.79-1.11,0,0,0,0,0,0,0,0-.01,0-.02,0-.04-.02-.09-.04-.13-.06.01,0,.03.01.04.02-3.63-1.56-7.15-3.39-10.56-5.39-4.56-2.72-8.96-5.7-13.21-8.88-.74-.55-1.47-1.11-2.19-1.68.04.03.09.07.14.1-1.69-1.34-3.34-2.72-4.93-4.16-1.63-1.48-3.19-3.03-4.72-4.6.02.02.03.03.05.05-.1-.11-.21-.22-.31-.33-3.29-3.41-6.37-7.05-9.18-10.86-2.14-2.96-4.14-6.02-5.9-9.23-1.59-2.93-3.02-5.94-4.24-9.04,0,.02.01.03.02.05-1.07-2.81-1.99-5.68-2.71-8.6-.7-2.92-1.21-5.88-1.55-8.86-.18-1.63-.31-3.27-.36-4.91,0,0,0,0,0,0,.08-.23.16-.47.08-.73-.2-.65-.92-1.07-1.58-.85-.73.24-1.48.45-2.23.62-.76.17-1.52.3-2.3.38-.57.05-1.15.07-1.73.06.02,0,.05,0,.07,0-.03,0-.06,0-.09,0-.02,0-.05,0-.07,0,.02,0,.03,0,.05,0-.41-.02-.82-.06-1.23-.12-.42-.07-.83-.17-1.24-.29-.28-.09-.55-.19-.82-.31-.25-.12-.5-.24-.73-.38-.23-.15-.45-.31-.67-.48-.25-.2-.49-.42-.72-.65-.15-.16-.29-.33-.42-.5-.12-.18-.23-.37-.34-.56-.09-.17-.17-.35-.24-.52-.09-.27-.17-.53-.24-.81-.08-.36-.13-.72-.17-1.08-.03-.36-.04-.72-.04-1.07.03-.66.09-1.31.19-1.96.14-.85.35-1.67.58-2.5.3-.99.68-1.95,1.09-2.9.46-1.02.97-2.01,1.54-2.97.58-.95,1.21-1.87,1.9-2.74,1.03-1.27,2.14-2.49,3.33-3.62.94-.88,1.91-1.7,2.95-2.46,1.16-.83,2.37-1.57,3.62-2.25,1.15-.61,2.35-1.12,3.57-1.57.97-.35,1.95-.67,2.95-.9.21-.04.42-.08.61-.17.02-.01.02-.04.05-.05.5-.18.86-.68.84-1.22-.03-.71-.62-1.22-1.31-1.23-.14,0-.28,0-.41,0,.03,0,.06,0,.09,0-.03,0-.06,0-.09,0-.63-.03-1.27-.09-1.89-.18-.45-.08-.9-.18-1.35-.3-.41-.12-.81-.27-1.2-.44-.37-.17-.72-.35-1.06-.55-.23-.15-.46-.31-.68-.48-.13-.11-.26-.23-.38-.36-.12-.13-.24-.28-.35-.42-.13-.19-.24-.38-.35-.58-.06-.12-.12-.25-.17-.38-.05-.14-.1-.28-.13-.43-.03-.17-.06-.33-.08-.5-.01-.18-.02-.37-.02-.55.01-.21.03-.43.06-.64.04-.24.09-.48.16-.72.08-.25.17-.51.27-.75.18-.39.38-.77.6-1.14.32-.5.66-.99,1.03-1.46.52-.63,1.08-1.22,1.67-1.79,0,0-.01,0-.02.01.02-.01.03-.03.05-.04,0,0,.02-.02.03-.03,1.31-1.23,2.74-2.35,4.2-3.4h0s.01,0,.01,0c.04-.03.08-.06.13-.09-.02.01-.03.03-.05.04,1.98-1.4,4.03-2.69,6.06-4,2.03-1.3,4.05-2.61,6.06-3.95,4.01-2.69,7.93-5.52,11.66-8.59,3.98-3.27,7.77-6.75,11.45-10.36,3.58-3.52,7.05-7.18,10.37-10.95,3.26-3.69,6.42-7.46,9.52-11.29-.38-.1-.76-.22-1.13-.35-.47-.17-.92-.37-1.37-.59-2.52,3.09-5.07,6.16-7.7,9.16-3.27,3.74-6.64,7.38-10.15,10.89-1.26,1.26-2.54,2.52-3.84,3.75-3.65,3.44-7.4,6.76-11.35,9.85-1.4,1.09-2.82,2.15-4.26,3.18-3.85,2.74-7.83,5.3-11.8,7.86-2.12,1.37-4.24,2.73-6.25,4.25-1.78,1.35-3.51,2.8-4.97,4.51-1.49,1.75-2.78,3.86-2.95,6.21-.08,1.08.06,2.18.51,3.16.35.76.83,1.43,1.41,2.02.23.23.47.44.73.64.83.64,1.81,1.08,2.81,1.44-2.3.94-4.5,2.12-6.52,3.56-1.91,1.37-3.63,2.97-5.23,4.69-.79.85-1.54,1.73-2.24,2.66-.72.96-1.36,1.97-1.96,3-.57.98-1.05,2.02-1.5,3.06-.4.93-.76,1.89-1.04,2.87-.66,2.31-1.05,4.73-.7,7.11.19,1.24.64,2.42,1.36,3.45.25.34.52.66.82.96.43.43.9.81,1.4,1.16.83.57,1.77.96,2.73,1.24,1.63.48,3.37.52,5.06.36,1.09-.11,2.16-.34,3.22-.61.1,1.94.28,3.87.54,5.8.32,2.41.78,4.81,1.35,7.18,1.12,4.63,2.74,9.12,4.73,13.44,2.12,4.62,4.73,9.01,7.67,13.15,3.11,4.39,6.59,8.52,10.33,12.4.07.08.14.15.22.23-.02-.02-.04-.04-.06-.06.57.59,1.14,1.18,1.72,1.76,1.28,1.28,2.59,2.52,3.94,3.72,1.96,1.73,3.98,3.36,6.06,4.94.53.4,1.08.77,1.62,1.16-.68.77-1.37,1.53-2.02,2.32-3.24,3.96-6.23,8.15-8.9,12.52-1.39,2.28-2.65,4.65-3.86,7.02-1.15,2.26-2.25,4.53-3.28,6.85-2.05,4.66-3.81,9.44-5.22,14.34-.74,2.56-1.36,5.16-1.92,7.77-.56,2.61-1.04,5.24-1.44,7.88-.76,5.12-1.3,10.28-1.39,15.46-.04,2.57.04,5.14.23,7.7.18,2.47.45,4.95.89,7.39.43,2.35.99,4.7,1.95,6.9.49,1.12,1.06,2.22,1.81,3.2.64.85,1.43,1.62,2.4,2.08.39.19.8.28,1.22.28.14,0,.29-.01.44-.04.5-.08.96-.27,1.39-.55.89,1.88,1.89,3.72,3.02,5.48,1.39,2.16,2.96,4.19,4.65,6.13,1.74,1.99,3.63,3.85,5.61,5.58,1.85,1.62,3.8,3.15,5.84,4.53,3.93,2.67,8.16,4.88,12.75,6.2.45.47.88.96,1.34,1.41,2.28,2.28,4.7,4.42,7.22,6.43,4.6,3.67,9.57,6.85,14.74,9.66-.43.87-.88,1.74-1.21,2.66-.8,2.19-1.36,4.45-1.65,6.77-.3,2.31-.32,4.7.11,6.99.22,1.16.52,2.28,1.02,3.36.46.98,1.03,1.92,1.72,2.76.62.75,1.33,1.43,2.13,1.99.77.54,1.62.98,2.49,1.33,1.33.53,2.73.84,4.15.84h.03c1.01,0,2-.16,2.97-.43.09-.03.13-.12.21-.16.5.4,1,.82,1.57,1.12,1.35.72,2.87,1.09,4.4,1.09h.05c2.06,0,4.1-.64,5.9-1.64.41.42.84.83,1.33,1.16,1.06.69,2.38.99,3.63,1.04.1,0,.21,0,.31,0,1.14,0,2.27-.26,3.26-.83,1.58-.91,2.73-2.46,3.56-4.05,1.16-2.22,1.83-4.67,2.25-7.14.21-1.25.32-2.51.38-3.77,2.63.43,5.27.8,7.92,1.05,4.11.39,8.24.59,12.37.59,3.47,0,6.95-.14,10.42-.44,2.19-.18,4.35-.53,6.53-.83.05,1.5.16,2.99.41,4.48.42,2.47,1.09,4.91,2.25,7.14.83,1.59,1.98,3.14,3.56,4.05.99.57,2.12.83,3.26.83.1,0,.21,0,.31,0,1.25-.05,2.57-.35,3.63-1.04.5-.32.92-.74,1.33-1.16,1.8,1,3.84,1.63,5.9,1.64h.05c1.53,0,3.05-.37,4.4-1.09.57-.3,1.07-.72,1.57-1.12.08.04.12.14.21.16.97.27,1.97.43,2.97.43h.03c1.43,0,2.83-.31,4.15-.84.87-.35,1.72-.78,2.49-1.33.8-.56,1.51-1.24,2.13-1.99.69-.84,1.26-1.78,1.72-2.76.5-1.07.8-2.19,1.02-3.36.43-2.29.41-4.68.11-6.99-.3-2.31-.86-4.57-1.65-6.77-.31-.85-.73-1.64-1.12-2.45,1.49-.79,3.02-1.5,4.48-2.35,3.09-1.8,6.12-3.71,9.03-5.79,2.58-1.85,5.05-3.84,7.4-5.97.08.01.14.07.21.07.11,0,.21-.01.32-.04,4.64-1.31,8.91-3.55,12.89-6.24,2.03-1.38,3.99-2.9,5.84-4.53,1.98-1.74,3.87-3.6,5.61-5.58,1.69-1.93,3.26-3.96,4.65-6.12,1.13-1.75,2.13-3.59,3.02-5.48.43.28.89.47,1.39.55.15.02.29.04.44.04.42,0,.83-.1,1.22-.28.97-.46,1.76-1.23,2.4-2.08.74-.98,1.32-2.07,1.81-3.2.96-2.2,1.53-4.55,1.95-6.9.44-2.44.71-4.91.89-7.39.19-2.56.27-5.13.23-7.7-.09-5.18-.64-10.33-1.39-15.46-.36-2.43-.82-4.85-1.32-7.25,3.92-1.69,7.72-3.64,11.29-6,2.03-1.34,3.99-2.79,5.87-4.34,1.5-1.24,2.93-2.55,4.33-3.91.6.93,1.23,1.84,1.96,2.67,1.12,1.27,2.42,2.42,3.95,3.18.9.45,1.84.81,2.84.95.6.09,1.21.13,1.81.11.42-.02.84-.06,1.25-.14,1.23-.26,2.36-.82,3.34-1.6,1.89-1.51,3.25-3.54,4.33-5.69.46-.91.85-1.85,1.19-2.81.38-1.07.73-2.16.99-3.27.27-1.17.49-2.34.61-3.53.12-1.15.16-2.31.17-3.47,0-2.35-.16-4.69-.63-7-.49-2.43-1.3-4.79-2.35-7.05.97.42,1.99.76,3.04.86.33.03.65.04.97.03.83-.03,1.63-.2,2.41-.52,1.01-.41,1.86-1.12,2.53-1.97,1.47-1.84,1.96-4.26,2.06-6.56.1-2.24-.18-4.49-.57-6.69ZM126.87,189.18s.07,0,.11-.01c0,0,0,0-.01,0,.05,0,.1,0,.15-.01-.09,0-.17.02-.25.03Zm50.79,189.94c-1.84-.9-3.6-1.93-5.31-3.05-2.13-1.41-4.17-2.95-6.11-4.61-1.9-1.65-3.7-3.42-5.39-5.28-1.49-1.68-2.9-3.44-4.17-5.3-1.18-1.77-2.24-3.62-3.19-5.52-.24-.49-.47-.97-.69-1.46.17-.28.37-.54.52-.82.96-1.85,1.63-3.83,2.24-5.81.21-.66-.23-1.38-.88-1.56-.68-.19-1.35.23-1.56.89-.21.7-.44,1.39-.68,2.08-.36,1.02-.75,2.02-1.23,2.99-.19.37-.4.73-.63,1.08-.12.17-.25.35-.39.51-.12.13-.25.26-.38.38-.08.06-.15.12-.22.17-.04.02-.07.04-.11.06-.03.01-.06.02-.08.03-.04.02-.08.02-.12.04-.06,0-.11.02-.17.02-.07-.03-.13-.06-.2-.08-.09-.05-.18-.1-.26-.15-.12-.09-.23-.17-.34-.27-.17-.16-.33-.32-.49-.49-.2-.24-.38-.49-.57-.74-.3-.46-.56-.94-.82-1.42-.36-.73-.67-1.48-.94-2.25-.45-1.31-.8-2.65-1.08-4.02-.57-2.91-.89-5.88-1.09-8.84-.12-1.91-.19-3.83-.18-5.74.02-1.97.1-3.93.23-5.89.03-.47.07-.94.11-1.41.43-5.15,1.17-10.28,2.2-15.34.52-2.5,1.08-5,1.76-7.47.66-2.45,1.43-4.87,2.26-7.26,1.6-4.54,3.51-8.97,5.65-13.28,1.1-2.17,2.21-4.33,3.42-6.45,1.16-2.05,2.42-4.04,3.74-5.99,2.47-3.62,5.12-7.13,8.01-10.43,0,0,0,0,0,0,.06-.07.12-.13.18-.19,1.29.92,2.58,1.83,3.9,2.71-.32.48-.65.96-.97,1.44-2.92,4.41-5.67,8.95-8.07,13.65-2.33,4.56-4.39,9.25-6.01,14.11-.81,2.42-1.52,4.88-2.05,7.38-.55,2.59-.95,5.2-1.21,7.83-.24,2.41-.35,4.85-.33,7.28.02,2.33.17,4.66.66,6.94.27,1.25.64,2.47,1.16,3.64.48,1.09,1.11,2.14,1.94,3,.29.3.62.55.95.79-.19,3.96-.06,7.92.29,11.86.15,1.61.33,3.21.59,4.81.28,1.72.62,3.43,1,5.14.85,3.75,1.97,7.44,3.36,11.02,1.3,3.35,2.81,6.63,4.57,9.76.91,1.62,1.86,3.21,2.9,4.74,1.11,1.63,2.28,3.21,3.5,4.76.72.91,1.51,1.77,2.27,2.65-.49-.21-.99-.37-1.47-.6Zm51.85,31.84c2.01.59,4.04,1.12,6.08,1.61-.08,0-.16.02-.24.02-.96,0-1.92-.03-2.88-.14-.84-.11-1.67-.26-2.5-.48-.2-.05-.39-.12-.58-.19.04-.27.08-.54.11-.81Zm-12.57-2.95c.15-.43.35-.84.52-1.26,3.15,1.29,6.36,2.44,9.61,3.46-.07.4-.18.79-.24,1.19-.46.03-.91.06-1.37.06-1.04,0-2.07-.06-3.1-.18-1-.13-1.98-.34-2.96-.6-.91-.25-1.8-.54-2.67-.9,0,0,0,0,.01,0-.01,0-.02,0-.03-.01-.02,0-.04-.02-.06-.02.01,0,.02,0,.03.01-.07-.03-.14-.06-.21-.09.15-.55.27-1.11.45-1.66Zm-1.37,6.81c.09-1.22.26-2.42.49-3.61,0-.03.02-.06.02-.09.35.15.7.31,1.06.44,2.58.93,5.34,1.41,8.09,1.41.47,0,.95-.03,1.42-.06-.27,2.13-.41,4.29-.16,6.43.03.23.11.45.15.68-.32.06-.64.11-.96.15-.77.1-1.53.16-2.31.16-.89,0-1.78-.06-2.66-.17-.94-.12-1.87-.29-2.79-.53-.49-.13-.98-.28-1.46-.47,0,0,.01,0,.02,0-.02,0-.04-.02-.06-.02-.01,0-.03-.01-.04-.02,0,0,.01,0,.02,0-.22-.09-.43-.2-.64-.31-.08-.49-.15-.98-.19-1.47-.05-.85-.05-1.7,0-2.55Zm-8.55-9.25c.37-1.04.77-2.07,1.25-3.06,2.25,1.16,4.55,2.22,6.88,3.23-.42,1.03-.8,2.08-1.09,3.15-.44-.09-.88-.16-1.31-.27-.95-.26-1.89-.57-2.81-.94-.89-.38-1.77-.83-2.61-1.31-.15-.09-.3-.19-.45-.29.05-.17.08-.34.14-.51Zm-1.41,9.75c-.06-.92-.05-1.84,0-2.77.1-1.29.29-2.56.54-3.82.08-.38.21-.75.31-1.13,2.23,1.31,4.68,2.26,7.22,2.77-.05.25-.14.5-.19.75-.41,2.18-.61,4.42-.43,6.64,0,.12.06.23.07.35-.55-.01-1.1-.02-1.65-.09-.64-.08-1.27-.21-1.91-.37-.71-.19-1.4-.44-2.08-.72-.61-.26-1.21-.56-1.79-.88-.03-.24-.08-.48-.1-.72Zm9.79,10.11c-.35.02-.7.02-1.05,0-.34-.03-.68-.08-1.02-.13-.4-.08-.79-.19-1.18-.32-.49-.18-.96-.39-1.43-.62-.29-.15-.58-.31-.85-.49-.3-.21-.58-.43-.86-.67-.24-.21-.47-.44-.69-.68-.28-.32-.54-.66-.79-1.02-.26-.4-.49-.81-.72-1.23-.19-.39-.36-.79-.51-1.2-.13-.39-.22-.78-.31-1.18.1.05.19.11.29.15.81.36,1.65.7,2.5.95,1.5.45,3.08.65,4.65.65h.01c.12.58.17,1.18.35,1.75.35,1.12.84,2.21,1.52,3.18.2.29.48.51.71.78-.21.03-.41.07-.62.08Zm13.05.51c-.46.23-.94.43-1.42.59-.42.14-.85.26-1.29.35-.37.07-.74.13-1.12.16-.36.02-.72.02-1.08,0-.27-.02-.53-.06-.8-.11-.32-.07-.64-.15-.95-.25-.28-.09-.55-.21-.81-.34,0,0,0,0,.02.01-.29-.15-.56-.32-.83-.49-.32-.22-.62-.46-.91-.7-.44-.4-.87-.81-1.27-1.26-.24-.28-.47-.58-.69-.89,0,.01.02.02.02.04-.02-.02-.03-.04-.04-.06-.02-.02-.04-.05-.05-.08.01.02.03.04.04.06-.17-.26-.32-.54-.47-.82.01.03.02.05.03.08-.18-.36-.34-.73-.48-1.11-.05-.15-.08-.31-.13-.47.23.08.44.22.67.29,1.61.49,3.3.77,4.99.88.44.03.89.04,1.33.04,1.25,0,2.5-.11,3.74-.35,0,0,0,0,0,0,.12.53.18,1.07.34,1.58.3.95.66,1.89,1.13,2.77.01.02.03.04.05.07,0,0-.01,0-.02.01Zm11.59-2.2c-.25.49-.52.97-.82,1.42-.21.31-.44.61-.67.89-.18.2-.36.38-.55.56-.17.14-.34.27-.52.4-.13.08-.27.16-.42.23-.14.07-.28.13-.42.18-.13.04-.26.08-.39.11-.21.04-.42.06-.63.08-.25.01-.49.02-.74,0-.27-.02-.53-.06-.8-.11-.24-.05-.48-.12-.71-.2-.13-.05-.26-.09-.38-.15-.12-.07-.24-.14-.36-.22,0,0,0,0-.01,0,0,0-.01,0-.02-.01-.16-.12-.32-.24-.48-.38-.2-.18-.39-.37-.57-.57-.18-.21-.35-.44-.51-.66-.18-.27-.34-.56-.49-.85-.25-.51-.46-1.03-.65-1.56-.11-.31-.17-.64-.26-.96.38.11.76.23,1.15.32,1.59.35,3.22.53,4.85.53.24,0,.49,0,.73-.01,1.51-.05,2.99-.34,4.42-.81-.22.61-.46,1.21-.74,1.78,0,0,0,0,0,0Zm2.17-9.08c-.1,1.38-.29,2.74-.56,4.09-.12.58-.31,1.15-.46,1.72-.17-.08-.37-.11-.55-.04-.37.13-.74.24-1.11.35,0,0,.01,0,.02,0-.6.16-1.21.28-1.83.37-.64.08-1.29.12-1.94.12-.94,0-1.88-.07-2.82-.18-.81-.1-1.6-.26-2.4-.45-.42-.11-.84-.23-1.25-.38-.03-.01-.07-.02-.11-.03-.13-.74-.23-1.48-.29-2.23-.06-1.02-.02-2.05.05-3.07.04-.55.16-1.08.23-1.62.29.09.57.18.87.25,1.71.4,3.45.56,5.2.56.13,0,.26,0,.39,0,1.65-.02,3.29-.17,4.91-.44.56.11,1.12.19,1.68.29,0,.24,0,.48-.02.71Zm73.85-9.64c.83-.39,1.62-.87,2.44-1.28.45.95.84,1.93,1.19,2.92.03.08.04.16.07.24-.23.15-.45.3-.69.44-.84.49-1.71.93-2.61,1.32-.92.37-1.85.69-2.81.94-.34.09-.69.14-1.04.21-.28-1-.65-1.98-1.04-2.95,1.49-.62,3.02-1.16,4.48-1.85Zm-5.41,7.27c.23,1.19.4,2.39.49,3.61.05.85.05,1.71,0,2.55-.03.41-.1.82-.16,1.22-.05.02-.1,0-.15.03-.02,0-.03.02-.05.03-.26.14-.53.27-.8.39,0,0,.01,0,.02,0-.01,0-.03.01-.04.02-.02,0-.04.02-.06.02,0,0,.01,0,.02,0-.47.19-.96.34-1.46.47-.92.24-1.85.41-2.79.53-.88.11-1.77.17-2.66.17-.77,0-1.54-.06-2.31-.16-.21-.03-.42-.07-.64-.1.03-.21.11-.41.13-.62.25-2.17.1-4.36-.17-6.53.37.02.74.05,1.11.05,2.75,0,5.51-.49,8.09-1.41.45-.16.88-.36,1.32-.55.02.1.06.2.08.31Zm-1.4-4.47c.17.42.37.84.52,1.27.16.47.26.95.39,1.43-.15.07-.31.14-.46.21.01,0,.02,0,.03-.01-.02,0-.04.02-.06.02-.01,0-.02.01-.03.01,0,0,0,0,.01,0-.87.35-1.76.65-2.67.9-.97.26-1.96.47-2.96.6-1.03.12-2.06.18-3.1.18-.36,0-.72-.03-1.07-.05-.07-.44-.18-.86-.26-1.3,3.27-.94,6.48-2.02,9.65-3.25Zm-11.95,4.89c-.06.04-.12.04-.17.08.02-.02.05-.05.07-.07h0s.04-.03.07-.05c0,0,.02-.01.03-.02,0,.02,0,.04,0,.05Zm-.49-.78c.12-.03.24-.08.36-.11.04.28.07.55.12.83-.28.11-.57.2-.86.28-.82.21-1.66.37-2.5.48-.96.11-1.92.14-2.88.14-.44,0-.88-.07-1.32-.09,2.37-.47,4.74-.91,7.08-1.53Zm0,12.05c-.19.53-.4,1.06-.65,1.56-.15.3-.31.58-.49.85-.16.23-.32.45-.51.66-.18.2-.37.39-.57.57-.15.13-.32.26-.48.38,0,0-.01,0-.02.01,0,0,0,0-.01,0-.12.08-.24.15-.36.22-.12.06-.25.1-.38.15-.23.08-.47.15-.71.2-.27.06-.53.09-.8.11-.25.01-.49,0-.74,0-.21-.02-.42-.04-.63-.08-.13-.03-.26-.07-.39-.11-.15-.05-.28-.11-.42-.18-.14-.07-.28-.15-.42-.23-.18-.13-.35-.26-.52-.4-.19-.18-.38-.36-.55-.56-.24-.28-.46-.59-.67-.89-.3-.46-.57-.93-.82-1.42,0,0,0,0,0,0-.28-.58-.52-1.18-.74-1.78,0-.01,0-.02,0-.03,1.34.41,2.71.68,4.11.73.24,0,.49.01.73.01,1.63,0,3.26-.18,4.85-.53.51-.11,1.02-.26,1.52-.42-.11.39-.19.79-.32,1.17Zm.74-2.9c-.15.03-.31.09-.45.14-.41.15-.83.27-1.25.38-.79.2-1.59.35-2.39.45-.94.11-1.87.18-2.82.18-.65,0-1.3-.04-1.94-.12-.62-.08-1.23-.21-1.83-.37,0,0,.01,0,.02,0-.37-.11-.74-.22-1.11-.35-.09-.03-.18.01-.27.02-.14-.53-.32-1.05-.43-1.58-.27-1.35-.46-2.72-.56-4.09-.03-.44-.02-.88-.04-1.31.3-.05.61-.07.91-.11.11.15.26.27.46.31,1.63.27,3.28.42,4.93.44.13,0,.26,0,.39,0,1.75,0,3.49-.15,5.2-.56.39-.09.77-.2,1.15-.33.08.61.21,1.21.25,1.82.06,1.02.11,2.05.05,3.07-.05.67-.15,1.34-.26,2.01Zm12.81,1.11c-.14.38-.3.74-.48,1.11.01-.02.02-.05.03-.08-.14.28-.3.56-.47.82.01-.02.03-.04.04-.06-.02.03-.04.06-.05.08-.01.02-.02.04-.04.06,0-.01.02-.02.02-.04-.22.31-.45.61-.69.89-.4.45-.82.86-1.27,1.26-.29.25-.6.49-.91.7-.27.18-.54.34-.83.49,0,0,.01,0,.02-.01-.26.13-.53.25-.81.34-.31.1-.63.19-.95.25-.27.05-.53.09-.8.11-.36.02-.72.02-1.08,0-.37-.03-.74-.09-1.11-.16-.44-.09-.87-.21-1.29-.35-.48-.17-.96-.37-1.42-.59,0,0-.01,0-.02-.01.01-.02.03-.04.05-.07.47-.89.82-1.82,1.13-2.77.17-.54.23-1.11.36-1.67,1.13.19,2.27.32,3.41.32.44,0,.89-.01,1.33-.04,1.68-.11,3.37-.39,4.99-.88.37-.11.71-.31,1.07-.46-.07.25-.13.5-.21.75Zm10.41-3.33s0-.06.01-.09c-.1.47-.21.93-.36,1.38-.15.41-.32.81-.51,1.2-.22.42-.45.83-.72,1.23-.25.36-.51.69-.79,1.02-.22.24-.45.46-.69.68-.28.24-.56.46-.86.67-.28.18-.57.34-.85.49-.47.23-.94.44-1.43.62-.39.13-.78.24-1.18.32-.34.06-.67.11-1.02.13-.35.02-.7.02-1.05,0-.21-.02-.41-.05-.62-.08.23-.27.51-.49.71-.78.68-.97,1.17-2.05,1.52-3.18.19-.62.25-1.26.37-1.88,1.46-.03,2.92-.2,4.32-.62.85-.26,1.69-.59,2.5-.95.23-.1.45-.25.67-.36-.01.07-.01.14-.03.21Zm.33-5.23c.05.92.06,1.84,0,2.77-.01.15-.05.29-.06.44-.69.4-1.41.74-2.15,1.05-.68.28-1.37.53-2.07.72-.63.16-1.27.29-1.91.37-.44.05-.87.05-1.31.07,0-.07.04-.14.04-.21.18-2.21-.02-4.46-.43-6.64-.06-.31-.16-.61-.23-.92,2.5-.53,4.91-1.48,7.11-2.8.03-.02.05-.04.08-.05.12.46.28.91.38,1.38.25,1.26.45,2.53.54,3.82Zm60.68-73.3c-.21,3-.53,5.99-1.11,8.94-.27,1.33-.62,2.64-1.06,3.92-.27.77-.58,1.52-.94,2.25-.25.49-.52.97-.82,1.43-.18.26-.36.5-.57.74-.15.17-.32.34-.49.49-.11.09-.22.18-.34.27-.08.05-.17.1-.26.15-.06.03-.13.06-.2.08-.06,0-.11-.02-.17-.02-.04-.01-.08-.02-.12-.03-.03-.01-.06-.02-.09-.04-.04-.02-.07-.04-.1-.06-.08-.06-.15-.11-.22-.17-.13-.12-.25-.25-.38-.38-.13-.17-.27-.34-.39-.51-.23-.35-.43-.7-.63-1.07-.48-.97-.87-1.97-1.23-3-.24-.69-.47-1.38-.68-2.08-.21-.66-.88-1.07-1.56-.89-.65.18-1.09.9-.88,1.56.61,1.99,1.28,3.96,2.24,5.81.14.28.34.55.52.82-.22.49-.45.98-.69,1.47-.95,1.91-2.01,3.75-3.19,5.52-1.26,1.85-2.68,3.62-4.17,5.3-1.69,1.87-3.49,3.63-5.39,5.28-1.94,1.66-3.99,3.2-6.11,4.61-1.71,1.12-3.47,2.15-5.31,3.05-.55.26-1.13.45-1.69.69,1.19-1.23,2.35-2.49,3.47-3.78,4.44-5.12,8.41-10.71,11.52-16.74,3-5.83,5.34-12.05,6.71-18.47.46-2.18.83-4.37,1.06-6.58.17-1.64.22-3.3.25-4.95,1.53-1.38,2.6-3.19,3.23-5.14.72-2.21.97-4.51.96-6.83,0-.34,0-.68-.02-1.02-.08-2.23-.38-4.45-.76-6.65,2.45-.7,4.87-1.52,7.24-2.45.01.07.03.14.04.21-.01-.06-.02-.11-.04-.17,1.03,5.08,1.78,10.23,2.21,15.4.04.47.08.94.11,1.41.13,1.97.21,3.93.23,5.89.01,1.92-.06,3.83-.18,5.75Zm25.28-42.77s.07.08.11.12c0,0,0,0,0,0,.02.03.05.06.07.08-.06-.06-.11-.13-.17-.19Z"/>
    <path class="cls-1" d="m405.23,299.32s0,0-.01-.01h0s0,0,.01.01Z"/>
    <path class="cls-1" d="m372.96,321.96s0,.03,0,.04c0,.04,0,.09,0,.13v-.17Z"/>
  </g>
</svg>