<?xml version="1.0" encoding="UTF-8"?>
<svg id="Layer_1" data-name="Layer 1" xmlns="http://www.w3.org/2000/svg" viewBox="0 0 40.53 46.01">
  <defs>
    <style>
      .cls-1 {
        fill: #fff5c0;
      }
    </style>
  </defs>
  <path class="cls-1" d="m1.78.02s-.02.03-.03.03c-.03,0-.07,0-.09,0-.21.02-.41.11-.56.25C.42.67,0,1.42,0,2.24v41.78c0,.62.27,1.27.78,1.66.23.26.59.38.94.31.46.02.94-.08,1.34-.31.85-.49,18.16-10.5,18.16-10.5l9.03-5.22s.04-.02.06-.03l.12-.06s.12-.06.12-.06l.03-.03c.27-.16,7.67-4.41,8.69-5,.7-.41,1.26-1.07,1.25-1.88s-.58-1.44-1.22-1.78c-.35-.19-2.63-1.49-4.75-2.72s-4.12-2.41-4.12-2.41l-9.22-5.31S4.46,1,3.47.43c-.35-.2-.74-.36-1.12-.41C2.15,0,1.97-.01,1.78.02Zm.22,2.69l20.38,20.22L2,43.15V2.71Zm4.75,1.91c5.09,2.94,13.47,7.78,13.47,7.78l8.06,4.66-4.5,4.47L6.75,4.61Zm23.31,13.47c.48.28,1.7.99,3.5,2.03,2.12,1.23,4.29,2.47,4.81,2.75.05.03.04.04.06.06-.04.03-.05.04-.16.09-.96.55-7.19,4.17-8.19,4.75l-4.91-4.84,4.88-4.84Zm-6.28,6.22l4.53,4.5-8.09,4.66s-8.16,4.71-13.44,7.75l17-16.91Z"/>
</svg>