<?xml version="1.0" encoding="UTF-8"?>
<svg id="Layer_1" data-name="Layer 1" xmlns="http://www.w3.org/2000/svg" viewBox="0 0 50.01 41.01">
  <defs>
    <style>
      .cls-1 {
        fill: #fff5c0;
      }
    </style>
  </defs>
  <path class="cls-1" d="m18.81,0c-.48.09-.82.51-.81,1v21l-2.84,1.06-9.28,3.28s-.02.02-.03.03l-1.59.59s-.04.02-.06.03c-2.6,1.19-4.19,2.82-4.19,4.69,0,1.48.44,2.84,1.31,3.84s2.14,1.66,3.66,1.97c3.04.62,7.15.03,12.34-1.75.21-.07.38-.14.69-.25v2.09c0,.45.29.84.72.97l7.72,2.31s.06.02.09.03c.09.05.18.08.28.09.09.01.19.01.28,0h.03c.07-.01.15-.04.22-.06.04,0,.09-.02.12-.03l.03-.03,6.12-2.12,10.81-3.81s.06-.02.09-.03l1.22-.56s.04-.02.06-.03c1.32-.51,2.33-1.05,3.06-1.72.75-.68,1.2-1.61,1.12-2.56-.08-.96-.68-1.77-1.5-2.38s-1.88-1.08-3.19-1.5c-3.04-1.05-6.04-1.36-8.75-1.25-2.56.1-5.24.5-7.91,1.31l-.06.03-.59.16V9.54c.58.32,1,.82,1,1.47v11.09c0,.34.16.65.44.84,0,0,.46.3,1.22.56s1.88.5,3.34.5c2.71,0,4.43-1.64,5.19-3.47s.81-3.84.81-5.12c0-6.09-3.68-10.25-8.72-11.75L19.28.04c-.12-.04-.25-.04-.38-.03h-.09Zm1.19,2.34l10.72,3.22c4.36,1.3,7.28,4.53,7.28,9.84,0,1.21-.09,2.99-.66,4.34s-1.36,2.25-3.34,2.25c-1.24,0-2.12-.21-2.69-.41-.23-.08-.2-.07-.31-.12v-10.47c0-1.63-1.09-2.96-2.53-3.5-.02,0-.02-.03-.03-.03-1.18-.45-2.44.46-2.44,1.72v18.38c0,.07,0,.14,0,.22v4.62c-.03.13-.03.27,0,.41v2.44c-.06.19-.06.4,0,.59v2.81l-6-1.78v-2.53c.06-.19.06-.4,0-.59v-3.19c.11-.26.11-.55,0-.81v-2.06c.13-.28.13-.6,0-.88v-4c.02-.11.02-.21,0-.31V2.35Zm-2,21.78v2.47c-.47.16-1.4.5-2.88,1.03-.91.32-1.82.68-2.56.94-.74.26-1.38.45-1.44.47-.02,0-.04.02-.06.03-1.43.53-2.36,1.05-2.94,1.66-.29.3-.54.64-.59,1.12-.04.36.25.68.5.97l-.12.09s.17.15.28.25c.09.08.1.12.22.19.27.17.65.32,1.16.41,1,.18,2.46.06,4.66-.72.01,0,.02,0,.03,0,1.26-.44,2.66-.96,3.75-1.38v1.72c-.46.16-.93.34-1.31.47-5.01,1.72-8.9,2.19-11.31,1.69-1.21-.25-2.03-.7-2.56-1.31s-.81-1.42-.81-2.53c0-.54.83-1.87,3.03-2.88l1.5-.56h.03l9.28-3.31,2.16-.81Zm18.62,2.78c2.5-.1,5.3.17,8.06,1.12v.03c1.19.38,2.09.79,2.62,1.19s.67.7.69.94c.03.35-.04.54-.47.94s-1.26.87-2.5,1.34c-.02,0-.04.02-.06.03l-1.19.56-.09.03-10.72,3.75-4.97,1.75v-2.41c.98-.36,9.04-3.27,10.84-3.94,1.51-.55,2.45-.94,3.09-1.28.32-.17.57-.32.81-.59s.41-.81.31-1.22c-.02-.11-.07-.21-.12-.31-.31-.47-1-.79-1.75-.94l.03-.06s-.14-.02-.19-.03c-.1-.02-.18-.05-.38-.06-.29-.02-.68-.02-1.25.03-1.14.11-2.92.46-5.62,1.38-3.01,1.02-4.7,1.61-5.78,2v-2.69l1.16-.31h.03c2.51-.77,5.02-1.15,7.44-1.25Zm-18.62,1.84v.78c-.79.3-2.82,1.06-4.44,1.62-1.8.64-2.81.69-3.41.62.34-.24.67-.48,1.53-.81.04-.01.03-.02.06-.03.29-.09.75-.25,1.47-.5.75-.26,1.69-.58,2.59-.91,1.12-.4,1.52-.54,2.19-.78Zm21.59,1.03c-.47.19-.68.32-1.44.59-1.67.61-8.38,3.04-10.16,3.69v-.75c.62-.23,2.19-.82,6.41-2.25,2.6-.88,4.25-1.19,5.19-1.28Z"/>
</svg>