<?xml version="1.0" encoding="UTF-8"?>
<svg id="Layer_1" data-name="Layer 1" xmlns="http://www.w3.org/2000/svg" viewBox="0 0 44 44">
  <defs>
    <style>
      .cls-1 {
        fill: #fff5c0;
      }
    </style>
  </defs>
  <path class="cls-1" d="m9,0C4.04,0,0,4.04,0,9v13.38l13.42,6.71c.5.23.72.83.49,1.33-.17.37-.53.58-.91.58-.14,0-.28-.03-.42-.09L0,24.62v10.38c0,4.96,4.04,9,9,9h26c4.96,0,9-4.04,9-9V9c0-4.96-4.04-9-9-9H9Zm0,2h26c3.86,0,7,3.14,7,7v26c0,3.86-3.14,7-7,7H9c-3.86,0-7-3.14-7-7v-7.14l4.02,2.01c-.01.21-.02.42-.02.63,0,4.14,3.36,7.5,7.5,7.5s7.5-3.36,7.5-7.5c0-.85-.14-1.68-.42-2.47l4.75-3.58c1.01.37,2.07.55,3.17.55,5.24,0,9.5-4.26,9.5-9.5s-4.26-9.5-9.5-9.5-9.5,4.26-9.5,9.5c0,1.12.19,2.21.57,3.25l-3.45,4.72c-.83-.31-1.72-.47-2.62-.47-1.74,0-3.34.59-4.61,1.59l-6.89-3.44v-12.15c0-3.86,3.14-7,7-7Zm19.5,6c4.14,0,7.5,3.36,7.5,7.5s-3.36,7.5-7.5,7.5c-1.03,0-2.01-.2-2.92-.6-.33-.15-.71-.1-1,.11l-5.82,4.39c-.38.29-.5.8-.3,1.23.36.74.54,1.54.54,2.37,0,3.03-2.47,5.5-5.5,5.5s-5.3-2.27-5.48-5.13l3.67,1.83h.03s.02.02.02.02c.4.19.82.28,1.26.28,1.17,0,2.24-.68,2.72-1.74.69-1.49.05-3.26-1.43-3.97l-3.33-1.66c.76-.4,1.62-.63,2.54-.63s1.72.2,2.5.6c.44.23.98.1,1.27-.3l3.1-4.24,1.14-1.58c.21-.28.26-.66.11-.99-.41-.94-.62-1.95-.62-2.99,0-4.14,3.36-7.5,7.5-7.5Zm0,2c-3.03,0-5.5,2.47-5.5,5.5s2.47,5.5,5.5,5.5,5.5-2.47,5.5-5.5-2.47-5.5-5.5-5.5Zm0,2c1.94,0,3.5,1.56,3.5,3.5s-1.56,3.5-3.5,3.5-3.5-1.56-3.5-3.5,1.56-3.5,3.5-3.5Z"/>
</svg>