<?xml version="1.0" encoding="UTF-8"?>
<svg id="Layer_1" data-name="Layer 1" xmlns="http://www.w3.org/2000/svg" viewBox="0 0 46.18 44">
  <defs>
    <style>
      .cls-1 {
        fill: #fff5c0;
      }
    </style>
  </defs>
  <path class="cls-1" d="m23.43,0c-6.1,0-12.82,2.31-14.22,9.81-.2.8.41,1.18.91,1.28l6.22.59c.6,0,.99-.59,1.19-1.19.5-2.6,2.7-3.91,5.09-3.91,1.3,0,2.79.52,3.59,1.72.9,1.3.72,3.09.72,4.59v.91c-3.7.4-8.5.69-12,2.19-4,1.7-6.81,5.21-6.81,10.41,0,6.6,4.2,9.91,9.5,9.91,4.5,0,7-1.12,10.5-4.72,1.2,1.7,1.62,2.51,3.72,4.31.2.1.39.19.59.19.3,0,.61-.08.91-.28v.09c1.3-1.1,3.57-3.21,4.88-4.31.5-.4.4-1.09,0-1.69-1.2-1.5-2.38-2.91-2.38-5.91v-9.91c0-4.2.29-8.1-2.81-11-2.5-2.3-6.49-3.09-9.59-3.09Zm0,2c2.7,0,6.19.7,8.19,2.59,2.1,2,2.22,4.5,2.22,8.5v10.91c0,3.3,1.27,5.09,2.38,6.59-.3.2-.57.51-.88.81v-.09l-2.91,2.59c-1.1-1-1.52-1.59-2.22-2.59-.1-.2-.3-.42-.5-.72l-1.38-2-1.72,1.72c-3.1,3.2-5.1,4.09-9,4.09-4.7,0-7.5-3.01-7.5-7.91,0-4,1.99-6.99,5.59-8.59,2.6-1.1,6.3-1.51,9.5-1.81.7-.1,1.3-.09,1.91-.19l1.81-.22v-3.19c0-1.6,0-3.49-1.09-5.19-1.1-1.6-3.02-2.62-5.22-2.62-3.4,0-6.11,1.91-6.91,4.91l-4.19-.41c1.6-6.2,8.11-7.19,11.91-7.19Zm1.69,15c-7.9.5-9.59,4.8-9.59,8.41-.1,3.9,2.31,6.59,5.81,6.59,2.5,0,4.79-1.51,6.19-3.91,1.4-2.5,1.41-4.79,1.41-7.19v-3.91h-3.81Zm0,2h1.81v1.41c0,2.5.08,4.49-1.22,6.69-1,1.8-2.68,2.91-4.38,2.91-2.4,0-3.91-1.79-3.91-4.59,0-4.7,3.69-6.11,7.69-6.41Zm17.59,14.59c-1.6,0-3.48.41-4.88,1.41-.4.3-.41.69.09.69,1.6-.2,5.21-.68,5.91.22.6.8-.71,4.18-1.31,5.78-.2.5.2.61.59.31,2.7-2.3,3.41-6.99,2.91-7.59-.3-.5-1.71-.81-3.31-.81ZM.34,34.5c-.3,0-.52.51-.12.81,6,5.4,14.01,8.69,22.81,8.69,6.3,0,13.59-1.99,18.69-5.69.8-.6.11-1.62-.69-1.22-5.7,2.4-11.8,3.59-17.41,3.59-8.3,0-16.28-2.3-22.78-6-.2-.2-.4-.19-.5-.19Z"/>
</svg>