<?xml version="1.0" encoding="UTF-8"?>
<svg id="Layer_1" data-name="Layer 1" xmlns="http://www.w3.org/2000/svg" viewBox="0 0 749.83 469.22">
  <defs>
    <style>
      .cls-1 {
        fill: #fff5c0;
      }
    </style>
  </defs>
  <path class="cls-1" d="m73.78,186.25c.6.05,1.3.08,2,.08,8.9,0,16.78-4.3,21.7-10.93l.05-.08c4.93-8.63,7.83-18.97,7.83-30,0-1.6-.05-3.2-.17-4.77v.2c.13-1.43.17-3.08.17-4.73,0-11.02-2.85-21.4-7.85-30.43l.17.32c-4.95-6.73-12.83-11.02-21.7-11.02-.78,0-1.55.03-2.3.1h.1-.05c-10.4,0-20.13,2.87-28.4,7.9l.25-.15v75.73c7.85,4.87,17.37,7.77,27.6,7.77h.65-.05Zm-63.05,87.77c-.2.02-.42.02-.67.02-1.8,0-3.47-.6-4.82-1.6l.03.02c-1.1-1.3-1.75-2.97-1.75-4.83,0-.27.03-.58.05-.83v.02V74.85c-.03-.25-.05-.52-.05-.82,0-1.82.67-3.52,1.77-4.82h0c1.3-1,2.95-1.6,4.75-1.6.25,0,.5,0,.75.03h-.03,20.75c.2-.03.45-.03.67-.03,3.72,0,6.83,2.73,7.38,6.3v.05l2,7.5c5.85-5.57,12.77-10.05,20.45-13.1l.42-.15c7.38-3.08,15.92-4.87,24.9-4.9h0c.63-.03,1.37-.05,2.13-.05,17.02,0,32.17,7.95,41.97,20.35l.07.13c10.25,14.02,16.4,31.6,16.4,50.6,0,1.65-.05,3.3-.13,4.92v-.22c.02.68.02,1.45.02,2.22,0,14.28-2.97,27.85-8.33,40.15l.25-.65c-4.82,11.23-12.3,20.5-21.68,27.38l-.17.13c-8.57,6.03-19.25,9.63-30.77,9.63h-.95.05-.33c-7.92,0-15.55-1.38-22.62-3.9l.48.15c-6.98-2.4-13.03-5.93-18.2-10.4l.08.05v63.05c.02.25.05.52.05.8,0,1.82-.6,3.5-1.63,4.85l.02-.02c-1.32,1-3,1.6-4.83,1.6-.27,0-.55-.02-.82-.05h.02l-27.7.03Zm172.43-59.3c-.2.03-.43.03-.68.03-1.85,0-3.52-.65-4.85-1.75h0c-1.08-1.3-1.75-3-1.75-4.85,0-.22,0-.43.03-.62v.03V74.85c-.03-.22-.05-.5-.05-.78,0-1.85.68-3.55,1.78-4.85h0c1.33-1,2.98-1.6,4.77-1.6.25,0,.5,0,.75.03h-.03,20.73c.2-.03.45-.03.7-.03,3.73,0,6.8,2.73,7.35,6.3v.05l3.75,15.53c6.1-7.12,13.28-13.1,21.32-17.75l.4-.2c6.25-3.35,13.65-5.3,21.53-5.3h4.27c.25-.03.52-.05.82-.05,1.85,0,3.55.6,4.92,1.62l-.03-.03c1.13,1.3,1.8,2.98,1.8,4.85,0,.27-.03.55-.05.82v-.03,24.15c.03.2.03.45.03.68,0,1.82-.6,3.5-1.62,4.85l.03-.03c-1.3,1.1-3,1.75-4.85,1.75-.27,0-.55-.03-.8-.05h.03c-1.73-.03-3.46-.13-5.17-.3-2.68-.22-5.37-.31-8.05-.27-5.77.13-11.33.8-16.7,1.98l.57-.1c-6.1,1.15-11.5,2.78-16.62,4.95l.52-.2v96.75c.03.2.03.4.03.62,0,1.82-.6,3.5-1.62,4.85l.03-.03c-1.27,1.1-2.98,1.78-4.8,1.78-.3,0-.57-.03-.85-.05h.03l-27.65-.05Zm115,0c-.32.05-.7.1-1.08.1-3.43,0-6.2-2.78-6.2-6.2,0-.4.03-.78.1-1.15v.05V74.85c-.03-.25-.05-.52-.05-.82,0-1.82.68-3.52,1.78-4.82h0c1.3-1,2.98-1.6,4.77-1.6.25,0,.5,0,.73.03h-.03,27.65c.43-.1.92-.17,1.43-.17,3.27,0,5.93,2.65,5.93,5.93,0,.5-.08,1-.17,1.48v-.05,132.68c.03.2.03.43.03.68,0,1.82-.6,3.5-1.6,4.85l.03-.03c-1.3,1.1-3,1.75-4.85,1.75-.27,0-.55-.03-.8-.05h.03l-27.68.05Zm13.85-169.85c-.38.03-.8.03-1.22.03-6.25,0-11.98-2.3-16.35-6.08l.03.03c-4.1-3.85-6.65-9.3-6.65-15.35,0-.37,0-.75.03-1.1v.05c-.03-.33-.03-.67-.03-1.05,0-6.05,2.55-11.52,6.65-15.37h0c4.8-3.75,10.9-6.03,17.55-6.03s12.77,2.28,17.62,6.08l-.05-.05c4.1,3.85,6.65,9.33,6.65,15.37,0,.37,0,.72-.03,1.1v-.05c.03.3.03.67.03,1.02,0,6.05-2.55,11.5-6.65,15.35h0c-4.35,3.78-10.07,6.05-16.32,6.05-.43,0-.87,0-1.3-.03h.05v.02Zm63.85,169.85c-.2.03-.43.03-.68.03-1.85,0-3.52-.65-4.85-1.75h0c-1.08-1.3-1.75-3-1.75-4.85,0-.22,0-.43.03-.62v.03V74.85c-.03-.22-.05-.5-.05-.78,0-1.85.68-3.55,1.78-4.85h0c1.33-1,2.98-1.6,4.78-1.6.25,0,.5,0,.75.03h-.02,20.7c.2-.03.45-.03.7-.03,3.73,0,6.8,2.73,7.35,6.3v.05l2.3,7.77c7.92-5.52,17-10.33,26.65-13.98l.85-.27c7.45-2.65,16.03-4.17,24.98-4.17h.23c1.05-.1,2.25-.15,3.47-.15,13.95,0,26.15,7.38,32.98,18.43l.1.17c7.98-5.57,17.1-10.35,26.82-13.85l.83-.25c7.92-2.73,17.08-4.3,26.6-4.3h.2c.78-.05,1.67-.08,2.58-.08,11.1,0,21.18,4.3,28.67,11.35l-.02-.03c6.9,7.58,11.12,17.67,11.12,28.78,0,.9-.02,1.82-.08,2.73v-.13,101.63c.02.2.02.43.02.68,0,1.8-.6,3.47-1.6,4.82l.02-.03c-1.28,1.1-2.97,1.78-4.8,1.78-.3,0-.58-.03-.85-.05h.02-27.65c-.33.05-.7.1-1.1.1-3.42,0-6.2-2.78-6.2-6.2,0-.38.02-.75.1-1.13v.05-92.4c0-13.05-5.88-19.6-17.55-19.6-11.45.13-22.25,2.9-31.83,7.7l.43-.2v104.5c.02.2.02.43.02.68,0,1.8-.6,3.47-1.6,4.82l.02-.03c-1.28,1.1-2.97,1.78-4.8,1.78-.3,0-.58-.03-.85-.05h.02-27.62c-.2.03-.43.03-.68.03-1.85,0-3.53-.65-4.85-1.75h0c-1.07-1.3-1.75-3-1.75-4.85,0-.22,0-.43.02-.62v.03-92.4c0-13.07-5.85-19.6-17.55-19.6-11.57.08-22.45,2.92-32.03,7.98l.37-.17v104.22c.02.2.02.45.02.68,0,1.8-.6,3.47-1.63,4.8l.02-.03c-1.28,1.1-2.97,1.78-4.8,1.78-.3,0-.58-.03-.85-.05h.02l-27.57-.15Zm307.4-86.07c.87.08,1.9.1,2.95.1,6.72,0,13.05-1.7,18.58-4.68l-.2.1c4.05-2.8,6.65-7.4,6.65-12.63,0-.38-.02-.75-.05-1.1v.05c0-12.08-7.18-18.13-21.55-18.13-18.43,0-29.1,11.32-32,33.95,7.32,1.48,15.75,2.33,24.38,2.33h1.32-.08Zm9.5,90.4c-1.42.1-3.1.15-4.8.15-19.35,0-36.98-7.5-50.08-19.75l.05.05c-12-13.5-19.33-31.4-19.33-51,0-1.8.08-3.6.17-5.38l-.02.25c-.1-1.45-.15-3.12-.15-4.82,0-20.6,7.45-39.45,19.82-54.03l-.1.13c12.8-13.2,30.67-21.43,50.5-21.43,1.38,0,2.72.05,4.08.13h-.17c1.13-.08,2.43-.13,3.75-.13,14.45,0,27.72,4.92,38.3,13.18l-.12-.1c9.3,7.95,15.15,19.7,15.15,32.82,0,.6,0,1.17-.02,1.78v-.08c.02.6.05,1.3.05,2,0,12.72-6.4,23.92-16.17,30.6l-.12.08c-12.17,7.1-26.8,11.28-42.4,11.28-1.95,0-3.9-.08-5.82-.2l.25.03c-.52,0-1.15.03-1.77.03-9.47,0-18.7-1.15-27.5-3.33l.78.17c.08,10.82,4.5,20.57,11.65,27.6h0c7.4,5.33,16.65,8.5,26.63,8.5,1.22,0,2.43-.05,3.6-.15h-.15.2c5.45,0,10.83-.38,16.07-1.1l-.6.08c8.97-1.38,16.73-3.08,24.28-5.25l-1.38.32c.43-.08.93-.13,1.42-.13h0c3.25,0,4.87,2.17,4.87,6.63v13.25c.02.3.05.65.05,1.03,0,2-.47,3.87-1.32,5.52l.02-.08c-1.3,1.52-3.03,2.7-4.97,3.3l-.08.03c-13.02,5.1-28.12,8.05-43.9,8.05h-.8.05l.05-.03Zm-15.05,157.38c-84.57,58.1-189.17,92.8-301.87,92.8h-1.8.1-2.78c-141.8,0-271.05-53.7-368.53-141.88l.48.43c-7.68-6.93-.8-16.4,8.43-11.02,106.4,61.9,234.15,98.45,370.45,98.45h.6-.02c102.33-.52,199.52-21.78,287.85-59.75l-4.8,1.82c13.88-5.88,25.5,9.15,11.9,19.18v-.02Zm34.17-38.98c-10.5-13.43-69.43-6.37-95.87-3.22-8.02.97-9.25-6.02-2.02-11.12,22.3-14.25,49.53-22.73,78.7-22.73,19.53,0,38.18,3.8,55.22,10.68l-1-.35c.68,5.25,1.05,11.35,1.05,17.5,0,42.57-18.25,80.9-47.35,107.57l-.1.1c-6.77,5.63-13.22,2.62-10.23-4.85,9.9-24.75,32.07-80.18,21.55-93.6l.05.02Z"/>
</svg>