<?xml version="1.0" encoding="UTF-8"?>
<svg id="Layer_1" data-name="Layer 1" xmlns="http://www.w3.org/2000/svg" viewBox="0 0 496 496">
  <defs>
    <style>
      .cls-1 {
        fill: #fff5c0;
      }

      .cls-2 {
        fill: none;
        stroke: #fff5c0;
        stroke-linecap: round;
        stroke-linejoin: round;
        stroke-width: 48px;
      }
    </style>
  </defs>
  <path class="cls-2" d="m472,248c0,123.71-100.29,224-224,224S24,371.71,24,248,124.29,24,248,24c59.41,0,116.38,23.6,158.39,65.61,42.01,42.01,65.61,98.98,65.61,158.39Z"/>
  <path class="cls-1" d="m72.38,197.77c-10.07,8.63-11.23,23.78-2.61,33.84,8.62,10.06,23.78,11.23,33.84,2.61l-31.23-36.45Zm312.03,9c12.58,4.19,26.17-2.6,30.36-15.18,4.19-12.57-2.6-26.17-15.18-30.36l-15.18,45.54Zm-280.03,55c-10.07,8.63-11.23,23.78-2.61,33.84,8.62,10.06,23.78,11.23,33.84,2.61l-31.23-36.45Zm265.8,9.51c12.86,3.21,25.89-4.6,29.1-17.47,3.22-12.86-4.6-25.89-17.46-29.1l-11.64,46.57Zm-233.8,54.49c-10.07,8.63-11.23,23.78-2.61,33.84,8.62,10.06,23.78,11.23,33.84,2.61l-31.23-36.45Zm233.8,9.51c12.86,3.21,25.89-4.6,29.1-17.47,3.22-12.86-4.6-25.89-17.46-29.1l-11.64,46.57ZM103.62,234.22c31.04-26.6,135.31-75.95,280.79-27.46l15.18-45.54c-161.72-53.91-283.56-.86-327.21,36.54l31.23,36.45Zm32,64c30.16-25.84,112.31-57.51,234.56-26.94l11.64-46.57c-133.74-33.43-232.91-1.1-277.44,37.06l31.23,36.45Zm32,64c16.69-14.3,37.25-27.93,67.69-34.82,30.75-6.96,73.49-7.47,134.87,7.88l11.64-46.57c-66.62-16.65-117.21-17.16-157.12-8.12-40.23,9.11-67.66,27.48-88.32,45.18l31.23,36.45Z"/>
</svg>